<?xml version="1.0" encoding="UTF-8" standalone="no"?>
<svg
   xmlns:dc="http://purl.org/dc/elements/1.1/"
   xmlns:cc="http://creativecommons.org/ns#"
   xmlns:rdf="http://www.w3.org/1999/02/22-rdf-syntax-ns#"
   xmlns:svg="http://www.w3.org/2000/svg"
   xmlns="http://www.w3.org/2000/svg"
   xmlns:sodipodi="http://sodipodi.sourceforge.net/DTD/sodipodi-0.dtd"
   xmlns:inkscape="http://www.inkscape.org/namespaces/inkscape"
   version="1.1"
   width="780px"
   height="1012px"
   style="shape-rendering:geometricPrecision; text-rendering:geometricPrecision; image-rendering:optimizeQuality; fill-rule:evenodd; clip-rule:evenodd"
   id="svg1757"
   sodipodi:docname="logo.svg"
   inkscape:version="1.0.2 (e86c8708, 2021-01-15)">
  <metadata
     id="metadata1763">
    <rdf:RDF>
      <cc:Work
         rdf:about="">
        <dc:format>image/svg+xml</dc:format>
        <dc:type
           rdf:resource="http://purl.org/dc/dcmitype/StillImage" />
        <dc:title></dc:title>
      </cc:Work>
    </rdf:RDF>
  </metadata>
  <defs
     id="defs1761" />
  <sodipodi:namedview
     pagecolor="#ffffff"
     bordercolor="#000000"
     borderopacity="0.25"
     objecttolerance="10"
     gridtolerance="10"
     guidetolerance="10"
     inkscape:pageopacity="0"
     inkscape:pageshadow="2"
     inkscape:window-width="1440"
     inkscape:window-height="900"
     id="namedview1759"
     showgrid="false"
     inkscape:zoom="0.34146459"
     inkscape:cx="308.08097"
     inkscape:cy="457.73"
     inkscape:window-x="0"
     inkscape:window-y="59"
     inkscape:window-maximized="0"
     inkscape:current-layer="svg1757" />
  <g
     id="g2903">
    <g
       id="g851"
       style="fill:#209bdb;fill-opacity:1">
      <path
         style="opacity:1;fill:#209bdb;fill-opacity:1"
         fill="#5a6a76"
         d="M 430.5,119.5 C 436.447,119.707 442.113,120.707 447.5,122.5C 441.588,122.148 435.921,121.148 430.5,119.5 Z"
         id="path849" />
    </g>
    <g
       id="g855"
       style="fill:#209bdb;fill-opacity:1">
      <path
         style="opacity:1;fill:#209bdb;fill-opacity:1"
         fill="#8697a2"
         d="M 427.5,118.5 C 427.5,118.833 427.5,119.167 427.5,119.5C 417.186,118.494 406.852,118.328 396.5,119C 385.415,120.768 374.415,122.935 363.5,125.5C 365.598,124.065 367.931,122.898 370.5,122C 389.318,117.679 408.318,116.512 427.5,118.5 Z"
         id="path853" />
    </g>
    <g
       id="g859"
       style="fill:#209bdb;fill-opacity:1">
      <path
         style="opacity:1;fill:#209bdb;fill-opacity:1"
         fill="#142635"
         d="M 427.5,119.5 C 428.5,119.5 429.5,119.5 430.5,119.5C 435.921,121.148 441.588,122.148 447.5,122.5C 453.534,124.506 459.534,126.506 465.5,128.5C 464.4,129.558 463.066,130.392 461.5,131C 461.833,131.333 462.167,131.667 462.5,132C 459.337,130.886 456.67,131.719 454.5,134.5C 453.304,134.154 453.304,133.654 454.5,133C 447.508,132.5 440.508,132.334 433.5,132.5C 433.784,135.777 433.451,138.943 432.5,142C 429.901,142.769 427.401,142.602 425,141.5C 422.142,145.405 419.475,145.405 417,141.5C 416.502,138.518 416.335,135.518 416.5,132.5C 412.833,132.5 409.167,132.5 405.5,132.5C 405.5,134.167 405.5,135.833 405.5,137.5C 402.5,137.5 399.5,137.5 396.5,137.5C 396.5,135.833 396.5,134.167 396.5,132.5C 388.186,131.579 379.852,131.579 371.5,132.5C 371.5,134.167 371.5,135.833 371.5,137.5C 375.167,137.5 378.833,137.5 382.5,137.5C 382.714,139.144 382.38,140.644 381.5,142C 376.178,142.684 370.844,143.184 365.5,143.5C 365.833,147.833 363.833,149.833 359.5,149.5C 359.216,151.877 359.216,154.044 359.5,156C 355.695,157.38 351.862,158.547 348,159.5C 347.09,161.945 347.924,163.278 350.5,163.5C 348.364,164.653 346.364,165.986 344.5,167.5C 329.231,177.101 316.565,189.434 306.5,204.5C 305.751,203.469 305.085,202.302 304.5,201C 300.848,200.501 297.182,200.335 293.5,200.5C 293.665,203.85 293.498,207.183 293,210.5C 292.469,204.829 291.969,199.162 291.5,193.5C 288.392,193.318 285.892,191.984 284,189.5C 282.886,191.483 281.386,193.15 279.5,194.5C 278.438,193.575 278.438,192.575 279.5,191.5C 281.048,188.582 282.548,185.582 284,182.5C 299.755,163.408 318.255,147.575 339.5,135C 347.519,131.831 355.519,128.664 363.5,125.5C 374.415,122.935 385.415,120.768 396.5,119C 406.852,118.328 417.186,118.494 427.5,119.5 Z"
         id="path857" />
    </g>
    <g
       id="g863"
       style="fill:#209bdb;fill-opacity:1">
      <path
         style="opacity:1;fill:#209bdb;fill-opacity:1"
         fill="#162839"
         d="M 465.5,128.5 C 499.08,141.404 525.08,163.404 543.5,194.5C 541.989,196.476 541.156,198.809 541,201.5C 540.147,203.125 539.147,203.458 538,202.5C 537.517,203.448 537.351,204.448 537.5,205.5C 539.833,205.5 542.167,205.5 544.5,205.5C 544.5,207.5 544.5,209.5 544.5,211.5C 543.167,211.5 541.833,211.5 540.5,211.5C 540.657,212.873 540.49,214.207 540,215.5C 539.667,215.167 539.333,214.833 539,214.5C 538.092,216.439 536.592,217.439 534.5,217.5C 534.457,221.893 534.957,222.226 536,218.5C 536.49,219.793 536.657,221.127 536.5,222.5C 534.5,222.833 532.5,223.167 530.5,223.5C 530.328,221.508 530.995,219.842 532.5,218.5C 531.131,216.876 529.464,216.376 527.5,217C 526.707,220.411 526.207,223.911 526,227.5C 525.632,226.09 524.799,225.09 523.5,224.5C 522.534,226.396 522.201,228.396 522.5,230.5C 521.596,229.791 521.263,228.791 521.5,227.5C 521.196,224.478 520.696,221.478 520,218.5C 519.8,216.68 518.966,215.347 517.5,214.5C 509.128,196.456 496.461,182.122 479.5,171.5C 472.172,165.958 464.172,161.292 455.5,157.5C 454.041,157.567 452.708,157.234 451.5,156.5C 445.773,152.926 439.44,150.926 432.5,150.5C 432.5,150.167 432.5,149.833 432.5,149.5C 433.552,149.649 434.552,149.483 435.5,149C 419.873,147.432 404.207,147.099 388.5,148C 382.316,149.225 376.316,150.892 370.5,153C 372.197,153.384 373.863,153.218 375.5,152.5C 375.167,153.167 374.833,153.833 374.5,154.5C 372.801,154.34 371.134,154.506 369.5,155C 364.683,156.882 360.016,159.048 355.5,161.5C 353.597,161.796 351.93,162.463 350.5,163.5C 347.924,163.278 347.09,161.945 348,159.5C 351.862,158.547 355.695,157.38 359.5,156C 359.216,154.044 359.216,151.877 359.5,149.5C 363.833,149.833 365.833,147.833 365.5,143.5C 370.844,143.184 376.178,142.684 381.5,142C 382.38,140.644 382.714,139.144 382.5,137.5C 378.833,137.5 375.167,137.5 371.5,137.5C 371.5,135.833 371.5,134.167 371.5,132.5C 379.852,131.579 388.186,131.579 396.5,132.5C 396.5,134.167 396.5,135.833 396.5,137.5C 399.5,137.5 402.5,137.5 405.5,137.5C 405.5,135.833 405.5,134.167 405.5,132.5C 409.167,132.5 412.833,132.5 416.5,132.5C 416.335,135.518 416.502,138.518 417,141.5C 419.475,145.405 422.142,145.405 425,141.5C 427.401,142.602 429.901,142.769 432.5,142C 433.451,138.943 433.784,135.777 433.5,132.5C 440.508,132.334 447.508,132.5 454.5,133C 453.304,133.654 453.304,134.154 454.5,134.5C 456.67,131.719 459.337,130.886 462.5,132C 462.167,131.667 461.833,131.333 461.5,131C 463.066,130.392 464.4,129.558 465.5,128.5 Z"
         id="path861" />
    </g>
    <g
       id="g871"
       style="fill:#209bdb;fill-opacity:1">
      <path
         style="opacity:1;fill:#209bdb;fill-opacity:1"
         fill="#8d959f"
         d="M 432.5,149.5 C 432.5,149.833 432.5,150.167 432.5,150.5C 431.833,150.5 431.167,150.5 430.5,150.5C 415.079,149.01 399.746,149.343 384.5,151.5C 386.658,149.78 389.325,148.947 392.5,149C 405.855,148.263 419.188,148.429 432.5,149.5 Z"
         id="path869" />
    </g>
    <g
       id="g875"
       style="fill:#209bdb;fill-opacity:1">
      <path
         style="opacity:1;fill:#209bdb;fill-opacity:1"
         fill="#070d1f"
         d="M 432.5,149.5 C 419.188,148.429 405.855,148.263 392.5,149C 389.325,148.947 386.658,149.78 384.5,151.5C 384.167,151.5 383.833,151.5 383.5,151.5C 380.833,151.833 378.167,152.167 375.5,152.5C 373.863,153.218 372.197,153.384 370.5,153C 376.316,150.892 382.316,149.225 388.5,148C 404.207,147.099 419.873,147.432 435.5,149C 434.552,149.483 433.552,149.649 432.5,149.5 Z"
         id="path873" />
    </g>
    <g
       id="g883"
       style="fill:#209bdb;fill-opacity:1">
      <path
         style="opacity:1;fill:#209bdb;fill-opacity:1"
         fill="#8e97a2"
         d="M 383.5,151.5 C 380.746,152.946 377.746,153.946 374.5,154.5C 374.833,153.833 375.167,153.167 375.5,152.5C 378.167,152.167 380.833,151.833 383.5,151.5 Z"
         id="path881" />
    </g>
    <g
       id="g887"
       style="fill:#209bdb;fill-opacity:1">
      <path
         style="opacity:1;fill:#209bdb;fill-opacity:1"
         fill="#c7d2d4"
         d="M 430.5,150.5 C 431.167,150.5 431.833,150.5 432.5,150.5C 439.44,150.926 445.773,152.926 451.5,156.5C 443.9,156.187 436.9,154.187 430.5,150.5 Z"
         id="path885" />
    </g>
    <g
       id="g891"
       style="fill:#209bdb;fill-opacity:1">
      <path
         style="opacity:1;fill:#209bdb;fill-opacity:1"
         fill="#b8c3ca"
         d="M 355.5,161.5 C 352.751,164.988 349.085,166.988 344.5,167.5C 346.364,165.986 348.364,164.653 350.5,163.5C 351.93,162.463 353.597,161.796 355.5,161.5 Z"
         id="path889" />
    </g>
    <g
       id="g895"
       style="fill:#209bdb;fill-opacity:1">
      <path
         style="opacity:1;fill:#209bdb;fill-opacity:1"
         fill="#c3cbcf"
         d="M 455.5,157.5 C 464.172,161.292 472.172,165.958 479.5,171.5C 474.146,169.318 469.146,166.485 464.5,163C 461.728,162.474 459.062,161.641 456.5,160.5C 455.873,159.583 455.539,158.583 455.5,157.5 Z"
         id="path893" />
    </g>
    <g
       id="g903"
       style="fill:#209bdb;fill-opacity:1">
      <path
         style="opacity:1;fill:#209bdb;fill-opacity:1"
         fill="#7c8d96"
         d="M 256.5,204.5 C 245.833,203.167 235.167,203.167 224.5,204.5C 225.263,203.732 226.263,203.232 227.5,203C 236.5,202.333 245.5,202.333 254.5,203C 255.416,203.278 256.082,203.778 256.5,204.5 Z"
         id="path901" />
    </g>
    <g
       id="g907"
       style="fill:#209bdb;fill-opacity:1">
      <path
         style="opacity:1;fill:#209bdb;fill-opacity:1"
         fill="#142735"
         d="M 256.5,204.5 C 257.167,204.5 257.833,204.5 258.5,204.5C 261.123,206.265 264.123,206.932 267.5,206.5C 267.5,207.167 267.833,207.5 268.5,207.5C 268.607,209.379 268.107,209.712 267,208.5C 266.505,210.473 266.338,212.473 266.5,214.5C 265.5,214.5 264.5,214.5 263.5,214.5C 263.5,217.167 263.5,219.833 263.5,222.5C 261.5,222.5 259.5,222.5 257.5,222.5C 257.5,224.167 257.5,225.833 257.5,227.5C 254.482,227.665 251.482,227.498 248.5,227C 250.061,226.682 251.228,225.849 252,224.5C 253.049,226.107 254.549,226.773 256.5,226.5C 256.5,225.5 256.5,224.5 256.5,223.5C 249.34,223.728 242.34,223.728 235.5,223.5C 235.714,225.144 235.38,226.644 234.5,228C 232.527,228.495 230.527,228.662 228.5,228.5C 228.5,229.5 228.5,230.5 228.5,231.5C 221.379,233.295 214.046,233.962 206.5,233.5C 206.719,234.675 206.386,235.675 205.5,236.5C 204.304,236.154 204.304,235.654 205.5,235C 204.207,234.51 202.873,234.343 201.5,234.5C 201.5,235.5 201.5,236.5 201.5,237.5C 199.833,237.5 198.167,237.5 196.5,237.5C 196.5,240.167 196.5,242.833 196.5,245.5C 194.5,245.5 192.5,245.5 190.5,245.5C 190.5,249.167 190.5,252.833 190.5,256.5C 188.473,256.338 186.473,256.505 184.5,257C 183.62,258.356 183.286,259.856 183.5,261.5C 178.156,261.334 172.823,261.501 167.5,262C 166.299,262.903 165.465,264.069 165,265.5C 164.8,268.361 164.633,271.028 164.5,273.5C 163.833,273.5 163.167,273.5 162.5,273.5C 162.364,268.054 163.031,262.72 164.5,257.5C 166.075,255.453 167.075,253.119 167.5,250.5C 169.245,248.967 170.245,246.967 170.5,244.5C 173.09,240.58 175.59,236.58 178,232.5C 182.167,229.667 185.667,226.167 188.5,222C 195.715,216.659 203.381,212.159 211.5,208.5C 216.011,207.624 220.344,206.291 224.5,204.5C 235.167,203.167 245.833,203.167 256.5,204.5 Z"
         id="path905" />
    </g>
    <g
       id="g911"
       style="fill:#209bdb;fill-opacity:1">
      <path
         style="opacity:1;fill:#209bdb;fill-opacity:1"
         fill="#63717a"
         d="M 258.5,204.5 C 261.727,204.676 264.727,205.343 267.5,206.5C 264.123,206.932 261.123,206.265 258.5,204.5 Z"
         id="path909" />
    </g>
    <g
       id="g923"
       style="fill:#209bdb;fill-opacity:1">
      <path
         style="opacity:1;fill:#209bdb;fill-opacity:1"
         fill="#717e84"
         d="M 301.5,216.5 C 301.088,218.887 300.088,220.887 298.5,222.5C 298.621,219.895 299.621,217.895 301.5,216.5 Z"
         id="path921" />
    </g>
    <g
       id="g927"
       style="fill:#209bdb;fill-opacity:1">
      <path
         style="opacity:1;fill:#209bdb;fill-opacity:1"
         fill="#818891"
         d="M 517.5,214.5 C 518.966,215.347 519.8,216.68 520,218.5C 520.696,221.478 521.196,224.478 521.5,227.5C 520.833,226.5 520.167,225.5 519.5,224.5C 519.453,221.031 518.787,217.698 517.5,214.5 Z"
         id="path925" />
    </g>
    <g
       id="g935"
       style="fill:#209bdb;fill-opacity:1">
      <path
         style="opacity:1;fill:#209bdb;fill-opacity:1"
         fill="#97a4aa"
         d="M 296.5,230.5 C 296.638,235.414 295.972,240.081 294.5,244.5C 294.362,239.586 295.028,234.919 296.5,230.5 Z"
         id="path933" />
    </g>
    <g
       id="g943"
       style="fill:#209bdb;fill-opacity:1">
      <path
         style="opacity:1;fill:#209bdb;fill-opacity:1"
         fill="#576775"
         d="M 170.5,244.5 C 170.245,246.967 169.245,248.967 167.5,250.5C 167.755,248.033 168.755,246.033 170.5,244.5 Z"
         id="path941" />
    </g>
    <g
       id="g947"
       style="fill:#209bdb;fill-opacity:1">
      <path
         style="opacity:1;fill:#209bdb;fill-opacity:1"
         fill="#638490"
         d="M 294.5,244.5 C 294.333,250.746 292.333,251.746 288.5,247.5C 289.583,247.539 290.583,247.873 291.5,248.5C 292.15,246.816 293.15,245.483 294.5,244.5 Z"
         id="path945" />
    </g>
    <g
       id="g955"
       style="fill:#209bdb;fill-opacity:1">
      <path
         style="opacity:1;fill:#209bdb;fill-opacity:1"
         fill="#8492a0"
         d="M 164.5,257.5 C 163.031,262.72 162.364,268.054 162.5,273.5C 162.167,273.5 161.833,273.5 161.5,273.5C 161.335,270.15 161.502,266.817 162,263.5C 162.037,261.026 162.87,259.026 164.5,257.5 Z"
         id="path953" />
    </g>
    <g
       id="g959"
       style="fill:#209bdb;fill-opacity:1">
      <path
         style="opacity:1;fill:#209bdb;fill-opacity:1"
         fill="#132635"
         d="M 543.5,194.5 C 545.635,198.873 547.968,203.206 550.5,207.5C 552.771,208.363 555.105,208.363 557.5,207.5C 561.804,206.869 566.137,206.369 570.5,206C 571.056,205.617 571.389,205.117 571.5,204.5C 572.5,204.5 573.5,204.5 574.5,204.5C 580.358,204.178 586.025,204.511 591.5,205.5C 598.298,206.396 604.965,208.062 611.5,210.5C 611.833,210.5 612.167,210.5 612.5,210.5C 618.584,213.088 624.251,216.421 629.5,220.5C 644.323,231.4 654.323,245.733 659.5,263.5C 660.046,267.045 660.713,270.545 661.5,274C 667.944,275.096 674.277,276.596 680.5,278.5C 685.182,280.836 689.848,283.169 694.5,285.5C 691.111,288.802 689.111,288.136 688.5,283.5C 687.07,283.579 685.736,283.246 684.5,282.5C 683.808,283.025 683.308,283.692 683,284.5C 681.933,282.717 680.433,282.217 678.5,283C 677.315,284.353 675.981,285.52 674.5,286.5C 676.865,287.085 678.865,288.252 680.5,290C 679.552,290.483 678.552,290.649 677.5,290.5C 677.649,291.552 677.483,292.552 677,293.5C 675.599,291.808 673.766,291.141 671.5,291.5C 671.5,294.5 671.5,297.5 671.5,300.5C 672.833,300.5 674.167,300.5 675.5,300.5C 675.338,298.473 675.505,296.473 676,294.5C 676.497,296.81 676.663,299.143 676.5,301.5C 673.934,301.344 671.434,301.678 669,302.5C 667.739,302.241 666.739,301.574 666,300.5C 665.316,301.784 665.483,302.951 666.5,304C 668.794,305.134 670.961,305.634 673,305.5C 673.456,306.744 672.956,307.577 671.5,308C 672.712,309.107 672.379,309.607 670.5,309.5C 668.786,308.262 666.786,307.595 664.5,307.5C 664.389,306.883 664.056,306.383 663.5,306C 661.527,305.505 659.527,305.338 657.5,305.5C 648.894,303.995 640.227,302.995 631.5,302.5C 629.903,294.408 628.903,286.075 628.5,277.5C 627.053,272.457 625.053,267.791 622.5,263.5C 619.558,257.894 615.558,253.227 610.5,249.5C 606.704,246.562 602.704,243.729 598.5,241C 596.26,240.023 593.927,239.523 591.5,239.5C 590.77,237.955 589.437,237.122 587.5,237C 578.314,236.265 569.148,236.431 560,237.5C 558.319,237.608 557.152,238.275 556.5,239.5C 551.817,239.367 547.484,240.367 543.5,242.5C 538.849,243.492 535.182,245.826 532.5,249.5C 532.167,249.5 531.833,249.5 531.5,249.5C 530.292,250.234 528.959,250.567 527.5,250.5C 525.186,243.947 523.52,237.28 522.5,230.5C 522.201,228.396 522.534,226.396 523.5,224.5C 524.799,225.09 525.632,226.09 526,227.5C 526.207,223.911 526.707,220.411 527.5,217C 529.464,216.376 531.131,216.876 532.5,218.5C 530.995,219.842 530.328,221.508 530.5,223.5C 532.5,223.167 534.5,222.833 536.5,222.5C 536.657,221.127 536.49,219.793 536,218.5C 534.957,222.226 534.457,221.893 534.5,217.5C 536.592,217.439 538.092,216.439 539,214.5C 539.333,214.833 539.667,215.167 540,215.5C 540.49,214.207 540.657,212.873 540.5,211.5C 541.833,211.5 543.167,211.5 544.5,211.5C 544.5,209.5 544.5,207.5 544.5,205.5C 542.167,205.5 539.833,205.5 537.5,205.5C 537.351,204.448 537.517,203.448 538,202.5C 539.147,203.458 540.147,203.125 541,201.5C 541.156,198.809 541.989,196.476 543.5,194.5 Z"
         id="path957" />
    </g>
    <g
       id="g979"
       style="fill:#209bdb;fill-opacity:1">
      <path
         style="opacity:1;fill:#209bdb;fill-opacity:1"
         fill="#858e9a"
         d="M 195.5,268.5 C 195.245,270.967 194.245,272.967 192.5,274.5C 192.755,272.033 193.755,270.033 195.5,268.5 Z"
         id="path977" />
    </g>
    <g
       id="g987"
       style="fill:#209bdb;fill-opacity:1">
      <path
         style="opacity:1;fill:#209bdb;fill-opacity:1"
         fill="#182c3a"
         d="M 161.5,273.5 C 161.833,273.5 162.167,273.5 162.5,273.5C 163.167,273.5 163.833,273.5 164.5,273.5C 165.5,273.5 166.5,273.5 167.5,273.5C 166.858,281.525 170.525,285.192 178.5,284.5C 178.799,286.604 178.466,288.604 177.5,290.5C 176.28,291.711 175.113,291.711 174,290.5C 173.182,295.794 172.682,295.794 172.5,290.5C 166.833,290.5 161.167,290.5 155.5,290.5C 156.029,294.351 155.362,297.851 153.5,301C 153.833,301.333 154.167,301.667 154.5,302C 153.354,302.645 152.354,303.478 151.5,304.5C 150.259,301.856 148.259,301.023 145.5,302C 142.296,303.055 139.296,304.555 136.5,306.5C 135.902,307.795 135.402,309.128 135,310.5C 134.395,308.519 133.395,308.185 132,309.5C 130.093,306.713 128.593,306.88 127.5,310C 129.52,314.424 128.187,317.258 123.5,318.5C 122.833,318.167 122.167,317.833 121.5,317.5C 125.377,311.88 124.544,311.213 119,315.5C 116.07,313.762 112.903,313.262 109.5,314C 110.696,314.654 110.696,315.154 109.5,315.5C 108.483,312.972 107.316,312.972 106,315.5C 105.51,316.793 105.343,318.127 105.5,319.5C 104.325,319.281 103.325,319.614 102.5,320.5C 102.846,321.696 103.346,321.696 104,320.5C 104.667,322.833 104.667,325.167 104,327.5C 102.506,326.253 101.006,326.253 99.5,327.5C 100.167,327.833 100.833,328.167 101.5,328.5C 100.349,329.731 99.1827,329.731 98,328.5C 97.0975,329.701 95.9308,330.535 94.5,331C 95.3802,332.356 95.7135,333.856 95.5,335.5C 93.0799,335.292 90.7466,335.626 88.5,336.5C 87.6733,334.838 86.5067,333.505 85,332.5C 84.3828,333.449 84.5494,334.282 85.5,335C 84.2068,335.49 82.8734,335.657 81.5,335.5C 81.6495,334.448 81.4828,333.448 81,332.5C 80.7645,334.119 79.9311,335.119 78.5,335.5C 88.4339,318.051 101.434,303.051 117.5,290.5C 125.648,286.167 133.648,281.667 141.5,277C 148.289,275.703 154.956,274.536 161.5,273.5 Z"
         id="path985" />
    </g>
    <g
       id="g1003"
       style="fill:#209bdb;fill-opacity:1">
      <path
         style="opacity:1;fill:#209bdb;fill-opacity:1"
         fill="#d8e3e9"
         d="M 191.5,302.5 C 191.196,303.15 190.863,303.817 190.5,304.5C 183.524,305.331 176.524,305.831 169.5,306C 163.066,308.218 156.399,309.718 149.5,310.5C 154.228,308.223 159.228,306.39 164.5,305C 173.687,305.046 182.687,304.213 191.5,302.5 Z"
         id="path1001" />
    </g>
    <g
       id="g1011"
       style="fill:#209bdb;fill-opacity:1">
      <path
         style="opacity:1;fill:#209bdb;fill-opacity:1"
         fill="#5a707d"
         d="M 549.5,311.5 C 551.641,310.837 553.975,310.503 556.5,310.5C 560.141,310.315 563.474,310.981 566.5,312.5C 560.855,311.866 555.189,311.532 549.5,311.5 Z"
         id="path1009" />
    </g>
    <g
       id="g1015"
       style="fill:#209bdb;fill-opacity:1">
      <path
         style="opacity:1;fill:#209bdb;fill-opacity:1"
         fill="#7f929d"
         d="M 258.5,311.5 C 355.5,311.5 452.5,311.5 549.5,311.5C 462.001,312.333 374.334,312.833 286.5,313C 274.425,313.187 262.425,313.687 250.5,314.5C 252.653,312.661 255.32,311.661 258.5,311.5 Z"
         id="path1013" />
    </g>
    <g
       id="g1019"
       style="fill:#209bdb;fill-opacity:1">
      <path
         style="opacity:1;fill:#209bdb;fill-opacity:1"
         fill="#afbeca"
         d="M 149.5,310.5 C 144.984,313.927 139.984,316.593 134.5,318.5C 138.74,314.57 143.74,311.904 149.5,310.5 Z"
         id="path1017" />
    </g>
    <g
       id="g1023"
       style="fill:#209bdb;fill-opacity:1">
      <path
         style="opacity:1;fill:#209bdb;fill-opacity:1"
         fill="#152838"
         d="M 549.5,311.5 C 555.189,311.532 560.855,311.866 566.5,312.5C 569.021,314.019 571.521,315.686 574,317.5C 575.788,319.76 577.288,322.093 578.5,324.5C 578.569,329.613 577.903,334.613 576.5,339.5C 574.806,341.861 572.806,343.861 570.5,345.5C 566.264,346.68 561.931,347.346 557.5,347.5C 552.658,346.623 547.991,346.623 543.5,347.5C 543.5,347.833 543.5,348.167 543.5,348.5C 539.302,347.125 534.969,346.458 530.5,346.5C 530.789,342.894 530.456,339.394 529.5,336C 525.141,335.95 520.974,335.117 517,333.5C 515.7,334.707 514.2,335.374 512.5,335.5C 512.326,343.473 511.826,343.473 511,335.5C 510.333,338.5 510.333,341.5 511,344.5C 511.906,341.879 512.406,342.046 512.5,345C 511.587,351.614 514.587,355.114 521.5,355.5C 521.5,356.5 521.5,357.5 521.5,358.5C 522.873,358.343 524.207,358.51 525.5,359C 524.577,361.041 524.244,363.208 524.5,365.5C 523.127,365.343 521.793,365.51 520.5,366C 521.791,367.292 521.791,368.458 520.5,369.5C 520.672,368.508 520.338,367.842 519.5,367.5C 518.201,364.605 516.535,361.938 514.5,359.5C 514.245,357.033 513.245,355.033 511.5,353.5C 511.5,353.167 511.5,352.833 511.5,352.5C 511.167,351.167 510.833,349.833 510.5,348.5C 509.962,346.883 509.629,345.216 509.5,343.5C 501.16,343.334 492.827,343.5 484.5,344C 483.263,344.232 482.263,344.732 481.5,345.5C 423.833,345.5 366.167,345.5 308.5,345.5C 308.371,347.216 308.038,348.883 307.5,350.5C 305.755,352.033 304.755,354.033 304.5,356.5C 301.758,360.246 299.425,364.246 297.5,368.5C 295.917,371.387 294.417,374.387 293,377.5C 292.506,379.134 292.34,380.801 292.5,382.5C 291.698,383.952 291.198,385.618 291,387.5C 290.256,404.518 290.423,421.518 291.5,438.5C 291.557,442.029 292.557,445.029 294.5,447.5C 294.5,448.167 294.5,448.833 294.5,449.5C 294.983,454.649 296.983,458.983 300.5,462.5C 301.03,464.924 301.864,467.257 303,469.5C 306.581,474.328 309.915,479.328 313,484.5C 324.45,495.782 335.617,507.115 346.5,518.5C 348.5,520.5 350.5,522.5 352.5,524.5C 356.529,528.194 360.196,532.194 363.5,536.5C 363.631,537.239 363.464,537.906 363,538.5C 360.167,537 357.333,535.5 354.5,534C 354.833,533.667 355.167,533.333 355.5,533C 354.41,530.12 352.744,527.62 350.5,525.5C 349.808,526.025 349.308,526.692 349,527.5C 348.092,525.561 346.592,524.561 344.5,524.5C 344.33,526.848 343.997,529.182 343.5,531.5C 344.664,534.067 345.33,536.734 345.5,539.5C 347.467,539.261 349.301,539.594 351,540.5C 351.667,543.833 351.667,547.167 351,550.5C 350.107,551.711 349.274,551.711 348.5,550.5C 347.289,549.28 347.289,548.113 348.5,547C 348,546.5 347.5,546 347,545.5C 346.627,547.698 346.127,549.865 345.5,552C 347.1,553.748 349.1,554.915 351.5,555.5C 352.5,556.833 353.5,558.167 354.5,559.5C 353.376,560.859 352.042,561.859 350.5,562.5C 348.187,560.626 345.854,558.626 343.5,556.5C 338.559,549.89 332.892,543.89 326.5,538.5C 316.496,527.824 306.496,517.157 296.5,506.5C 294.234,502.564 291.234,499.231 287.5,496.5C 278.374,483.581 271.374,469.581 266.5,454.5C 265.161,448.48 263.828,442.48 262.5,436.5C 261.662,422.851 261.329,409.184 261.5,395.5C 261.98,389.809 262.646,384.142 263.5,378.5C 265.112,370.055 267.945,362.055 272,354.5C 272.814,352.098 272.647,349.765 271.5,347.5C 258.738,352.49 248.738,349.49 241.5,338.5C 240.443,333.8 240.443,329.134 241.5,324.5C 242.091,321.641 243.424,319.307 245.5,317.5C 247.184,316.473 248.851,315.473 250.5,314.5C 262.425,313.687 274.425,313.187 286.5,313C 374.334,312.833 462.001,312.333 549.5,311.5 Z"
         id="path1021" />
    </g>
    <g
       id="g1031"
       style="fill:#209bdb;fill-opacity:1">
      <path
         style="opacity:1;fill:#209bdb;fill-opacity:1"
         fill="#8c99a5"
         d="M 578.5,324.5 C 579.641,327.64 579.808,330.973 579,334.5C 578.901,336.653 578.067,338.319 576.5,339.5C 577.903,334.613 578.569,329.613 578.5,324.5 Z"
         id="path1029" />
    </g>
    <g
       id="g1035"
       style="fill:#209bdb;fill-opacity:1">
      <path
         style="opacity:1;fill:#209bdb;fill-opacity:1"
         fill="#586677"
         d="M 241.5,324.5 C 240.443,329.134 240.443,333.8 241.5,338.5C 240.027,335.983 239.36,333.15 239.5,330C 239.547,327.705 240.213,325.871 241.5,324.5 Z"
         id="path1033" />
    </g>
    <g
       id="g1051"
       style="fill:#209bdb;fill-opacity:1">
      <path
         style="opacity:1;fill:#209bdb;fill-opacity:1"
         fill="#54606d"
         d="M 570.5,345.5 C 569.319,347.067 567.653,347.901 565.5,348C 558.131,348.726 550.798,348.559 543.5,347.5C 547.991,346.623 552.658,346.623 557.5,347.5C 561.931,347.346 566.264,346.68 570.5,345.5 Z"
         id="path1049" />
    </g>
    <g
       id="g1055"
       style="fill:#209bdb;fill-opacity:1">
      <path
         style="opacity:1;fill:#209bdb;fill-opacity:1"
         fill="#172935"
         d="M 543.5,348.5 C 548.422,361.162 552.588,374.162 556,387.5C 559.133,404.48 559.299,421.48 556.5,438.5C 554.926,440.102 554.259,442.102 554.5,444.5C 552.085,452.902 549.418,461.235 546.5,469.5C 541.398,479.474 535.564,489.141 529,498.5C 515.631,512.668 502.297,526.668 489,540.5C 480.623,550.039 472.456,559.706 464.5,569.5C 463.175,568.047 462.342,568.381 462,570.5C 461.502,567.518 461.335,564.518 461.5,561.5C 459.833,561.5 458.167,561.5 456.5,561.5C 456.884,559.071 457.551,556.737 458.5,554.5C 459.5,554.5 460.5,554.5 461.5,554.5C 461.5,553.5 461.5,552.5 461.5,551.5C 462.5,551.5 463.5,551.5 464.5,551.5C 464.5,550.5 464.5,549.5 464.5,548.5C 461.606,548.042 459.106,548.709 457,550.5C 454.16,547.629 451.826,547.963 450,551.5C 449.374,549.009 448.541,549.009 447.5,551.5C 446.264,552.246 444.93,552.579 443.5,552.5C 442.21,553.058 441.377,554.058 441,555.5C 440.289,553.633 440.789,552.133 442.5,551C 441.423,550.53 440.423,550.697 439.5,551.5C 442.833,548.5 446.167,545.5 449.5,542.5C 452.764,540.906 455.431,538.573 457.5,535.5C 460.243,533.761 462.243,531.427 463.5,528.5C 476.693,514.303 490.36,500.303 504.5,486.5C 506.878,484.122 508.878,481.455 510.5,478.5C 513.604,474.068 516.27,469.401 518.5,464.5C 520.245,462.967 521.245,460.967 521.5,458.5C 524.67,451.141 527.003,443.475 528.5,435.5C 529.268,434.737 529.768,433.737 530,432.5C 530.667,422.167 530.667,411.833 530,401.5C 529.79,399.942 529.29,398.609 528.5,397.5C 528.386,391.832 527.053,386.498 524.5,381.5C 523.74,377.313 522.407,373.313 520.5,369.5C 521.791,368.458 521.791,367.292 520.5,366C 521.793,365.51 523.127,365.343 524.5,365.5C 524.244,363.208 524.577,361.041 525.5,359C 524.207,358.51 522.873,358.343 521.5,358.5C 521.5,357.5 521.5,356.5 521.5,355.5C 514.587,355.114 511.587,351.614 512.5,345C 512.406,342.046 511.906,341.879 511,344.5C 510.333,341.5 510.333,338.5 511,335.5C 511.826,343.473 512.326,343.473 512.5,335.5C 514.2,335.374 515.7,334.707 517,333.5C 520.974,335.117 525.141,335.95 529.5,336C 530.456,339.394 530.789,342.894 530.5,346.5C 534.969,346.458 539.302,347.125 543.5,348.5 Z"
         id="path1053" />
    </g>
    <g
       id="g1091"
       style="fill:#209bdb;fill-opacity:1">
      <path
         style="opacity:1;fill:#209bdb;fill-opacity:1"
         fill="#52636d"
         d="M 68.5,364.5 C 67.5908,378.475 67.2575,392.475 67.5,406.5C 66.0664,400.225 65.3997,393.725 65.5,387C 65.7612,380.159 66.0945,373.325 66.5,366.5C 67.1667,365.833 67.8333,365.167 68.5,364.5 Z"
         id="path1089" />
    </g>
    <g
       id="g1095"
       style="fill:#209bdb;fill-opacity:1">
      <path
         style="opacity:1;fill:#209bdb;fill-opacity:1"
         fill="#848f98"
         d="M 100.5,370.5 C 99.234,382.477 99.234,394.477 100.5,406.5C 99.7784,406.082 99.2784,405.416 99,404.5C 98.8333,398.833 98.6667,393.167 98.5,387.5C 98.5045,381.458 99.1712,375.792 100.5,370.5 Z"
         id="path1093" />
    </g>
    <g
       id="g1103"
       style="fill:#209bdb;fill-opacity:1">
      <path
         style="opacity:1;fill:#209bdb;fill-opacity:1"
         fill="#7d8c9b"
         d="M 754.5,371.5 C 754.833,371.5 755.167,371.5 755.5,371.5C 755.667,383.171 755.5,394.838 755,406.5C 754.768,407.737 754.268,408.737 753.5,409.5C 754.421,396.863 754.754,384.197 754.5,371.5 Z"
         id="path1101" />
    </g>
    <g
       id="g1115"
       style="fill:#209bdb;fill-opacity:1">
      <path
         style="opacity:1;fill:#209bdb;fill-opacity:1"
         fill="#162a39"
         d="M 694.5,285.5 C 728.125,304.489 748.125,333.156 754.5,371.5C 754.754,384.197 754.421,396.863 753.5,409.5C 751.629,416.85 749.629,424.184 747.5,431.5C 745.621,432.895 744.621,434.895 744.5,437.5C 734.322,464.511 716.322,484.511 690.5,497.5C 687.435,497.759 684.935,496.759 683,494.5C 681.467,494.944 679.967,495.277 678.5,495.5C 677.029,494.619 676.196,493.286 676,491.5C 674.612,492.554 673.112,492.72 671.5,492C 670.167,491.333 670.167,490.667 671.5,490C 667.833,489.667 664.167,489.333 660.5,489C 658.238,480.805 656.238,480.639 654.5,488.5C 648.824,488.666 643.157,488.499 637.5,488C 638.833,487.333 638.833,486.667 637.5,486C 635.5,485.333 633.5,485.333 631.5,486C 638.134,486.823 638.134,487.323 631.5,487.5C 631.5,489.167 631.5,490.833 631.5,492.5C 608.833,492.833 608.833,493.167 631.5,493.5C 631.5,497.5 631.5,501.5 631.5,505.5C 616.5,505.5 601.5,505.5 586.5,505.5C 586.244,503.208 586.577,501.041 587.5,499C 586.437,497.812 585.103,497.312 583.5,497.5C 583.5,498.5 583.5,499.5 583.5,500.5C 581.08,500.708 578.747,500.374 576.5,499.5C 575.571,500.689 575.238,502.022 575.5,503.5C 574.5,503.5 573.5,503.5 572.5,503.5C 572.62,506.205 571.62,506.872 569.5,505.5C 568.833,506.167 568.167,506.833 567.5,507.5C 567.167,507.167 566.833,506.833 566.5,506.5C 567.5,505.167 568.5,503.833 569.5,502.5C 569.192,501.692 568.692,501.025 568,500.5C 567.293,502.081 566.46,503.581 565.5,505C 561.912,505.147 558.579,505.98 555.5,507.5C 562.524,499.193 569.357,490.526 576,481.5C 576.671,480.748 577.504,480.414 578.5,480.5C 591.497,480.928 604.497,481.262 617.5,481.5C 626.991,482.658 636.658,482.825 646.5,482C 647.737,481.768 648.737,481.268 649.5,480.5C 681.276,472.466 703.61,453.466 716.5,423.5C 717.898,419.581 719.398,415.581 721,411.5C 723.754,393.255 722.754,375.255 718,357.5C 717.392,355.934 716.558,354.6 715.5,353.5C 712.749,346.083 708.749,339.416 703.5,333.5C 697.203,325.517 689.536,319.183 680.5,314.5C 677.137,312.818 673.803,311.152 670.5,309.5C 672.379,309.607 672.712,309.107 671.5,308C 672.956,307.577 673.456,306.744 673,305.5C 670.961,305.634 668.794,305.134 666.5,304C 665.483,302.951 665.316,301.784 666,300.5C 666.739,301.574 667.739,302.241 669,302.5C 671.434,301.678 673.934,301.344 676.5,301.5C 676.663,299.143 676.497,296.81 676,294.5C 675.505,296.473 675.338,298.473 675.5,300.5C 674.167,300.5 672.833,300.5 671.5,300.5C 671.5,297.5 671.5,294.5 671.5,291.5C 673.766,291.141 675.599,291.808 677,293.5C 677.483,292.552 677.649,291.552 677.5,290.5C 678.552,290.649 679.552,290.483 680.5,290C 678.865,288.252 676.865,287.085 674.5,286.5C 675.981,285.52 677.315,284.353 678.5,283C 680.433,282.217 681.933,282.717 683,284.5C 683.308,283.692 683.808,283.025 684.5,282.5C 685.736,283.246 687.07,283.579 688.5,283.5C 689.111,288.136 691.111,288.802 694.5,285.5 Z"
         id="path1113" />
    </g>
    <g
       id="g1123"
       style="fill:#209bdb;fill-opacity:1">
      <path
         style="opacity:1;fill:#209bdb;fill-opacity:1"
         fill="#152839"
         d="M 306.5,204.5 C 303.899,208.104 302.232,212.104 301.5,216.5C 299.621,217.895 298.621,219.895 298.5,222.5C 298.435,225.428 297.768,228.095 296.5,230.5C 295.028,234.919 294.362,239.586 294.5,244.5C 293.15,245.483 292.15,246.816 291.5,248.5C 290.583,247.873 289.583,247.539 288.5,247.5C 287.167,246.833 285.833,246.167 284.5,245.5C 283.71,244.599 282.71,243.932 281.5,243.5C 279.194,243.007 276.861,242.674 274.5,242.5C 274.389,241.883 274.056,241.383 273.5,241C 260.222,236.727 246.556,235.394 232.5,237C 230.347,237.099 228.681,237.933 227.5,239.5C 211.476,243.188 200.81,252.854 195.5,268.5C 193.755,270.033 192.755,272.033 192.5,274.5C 191.582,283.793 191.248,293.127 191.5,302.5C 182.687,304.213 173.687,305.046 164.5,305C 159.228,306.39 154.228,308.223 149.5,310.5C 143.74,311.904 138.74,314.57 134.5,318.5C 132.405,319.412 130.405,320.579 128.5,322C 113.455,334.876 104.122,351.043 100.5,370.5C 99.1712,375.792 98.5045,381.458 98.5,387.5C 98.6667,393.167 98.8333,398.833 99,404.5C 99.2784,405.416 99.7784,406.082 100.5,406.5C 100.915,410.361 101.915,414.027 103.5,417.5C 105.268,421.375 106.768,425.375 108,429.5C 109.938,432.551 111.772,435.551 113.5,438.5C 122.047,454.969 135.047,466.636 152.5,473.5C 154.033,475.245 156.033,476.245 158.5,476.5C 158.833,476.5 159.167,476.5 159.5,476.5C 164.867,478.904 170.534,480.571 176.5,481.5C 196.372,482.815 216.372,482.815 236.5,481.5C 238.924,481.192 241.257,481.526 243.5,482.5C 243.815,484.483 244.815,485.816 246.5,486.5C 251.7,496.181 258.533,504.514 267,511.5C 267.847,514.49 266.68,515.824 263.5,515.5C 234.166,516.786 204.833,516.62 175.5,515C 165.093,512.919 155.093,509.752 145.5,505.5C 126.184,497.916 109.684,486.249 96,470.5C 91.2871,463.958 86.7871,457.291 82.5,450.5C 80.896,446.25 78.896,442.25 76.5,438.5C 75.8902,437.609 75.5569,436.609 75.5,435.5C 71.8894,426.13 69.2227,416.463 67.5,406.5C 67.2575,392.475 67.5908,378.475 68.5,364.5C 70.4198,359.025 71.9198,353.359 73,347.5C 74.3692,343.198 76.2026,339.198 78.5,335.5C 79.9311,335.119 80.7645,334.119 81,332.5C 81.4828,333.448 81.6495,334.448 81.5,335.5C 82.8734,335.657 84.2068,335.49 85.5,335C 84.5494,334.282 84.3828,333.449 85,332.5C 86.5067,333.505 87.6733,334.838 88.5,336.5C 90.7466,335.626 93.0799,335.292 95.5,335.5C 95.7135,333.856 95.3802,332.356 94.5,331C 95.9308,330.535 97.0975,329.701 98,328.5C 99.1827,329.731 100.349,329.731 101.5,328.5C 100.833,328.167 100.167,327.833 99.5,327.5C 101.006,326.253 102.506,326.253 104,327.5C 104.667,325.167 104.667,322.833 104,320.5C 103.346,321.696 102.846,321.696 102.5,320.5C 103.325,319.614 104.325,319.281 105.5,319.5C 105.343,318.127 105.51,316.793 106,315.5C 107.316,312.972 108.483,312.972 109.5,315.5C 110.696,315.154 110.696,314.654 109.5,314C 112.903,313.262 116.07,313.762 119,315.5C 124.544,311.213 125.377,311.88 121.5,317.5C 122.167,317.833 122.833,318.167 123.5,318.5C 128.187,317.258 129.52,314.424 127.5,310C 128.593,306.88 130.093,306.713 132,309.5C 133.395,308.185 134.395,308.519 135,310.5C 135.402,309.128 135.902,307.795 136.5,306.5C 139.296,304.555 142.296,303.055 145.5,302C 148.259,301.023 150.259,301.856 151.5,304.5C 152.354,303.478 153.354,302.645 154.5,302C 154.167,301.667 153.833,301.333 153.5,301C 155.362,297.851 156.029,294.351 155.5,290.5C 161.167,290.5 166.833,290.5 172.5,290.5C 172.682,295.794 173.182,295.794 174,290.5C 175.113,291.711 176.28,291.711 177.5,290.5C 178.466,288.604 178.799,286.604 178.5,284.5C 170.525,285.192 166.858,281.525 167.5,273.5C 166.5,273.5 165.5,273.5 164.5,273.5C 164.633,271.028 164.8,268.361 165,265.5C 165.465,264.069 166.299,262.903 167.5,262C 172.823,261.501 178.156,261.334 183.5,261.5C 183.286,259.856 183.62,258.356 184.5,257C 186.473,256.505 188.473,256.338 190.5,256.5C 190.5,252.833 190.5,249.167 190.5,245.5C 192.5,245.5 194.5,245.5 196.5,245.5C 196.5,242.833 196.5,240.167 196.5,237.5C 198.167,237.5 199.833,237.5 201.5,237.5C 201.5,236.5 201.5,235.5 201.5,234.5C 202.873,234.343 204.207,234.51 205.5,235C 204.304,235.654 204.304,236.154 205.5,236.5C 206.386,235.675 206.719,234.675 206.5,233.5C 214.046,233.962 221.379,233.295 228.5,231.5C 228.5,230.5 228.5,229.5 228.5,228.5C 230.527,228.662 232.527,228.495 234.5,228C 235.38,226.644 235.714,225.144 235.5,223.5C 242.34,223.728 249.34,223.728 256.5,223.5C 256.5,224.5 256.5,225.5 256.5,226.5C 254.549,226.773 253.049,226.107 252,224.5C 251.228,225.849 250.061,226.682 248.5,227C 251.482,227.498 254.482,227.665 257.5,227.5C 257.5,225.833 257.5,224.167 257.5,222.5C 259.5,222.5 261.5,222.5 263.5,222.5C 263.5,219.833 263.5,217.167 263.5,214.5C 264.5,214.5 265.5,214.5 266.5,214.5C 266.338,212.473 266.505,210.473 267,208.5C 268.107,209.712 268.607,209.379 268.5,207.5C 269.822,207.67 270.989,207.337 272,206.5C 274.088,202.114 275.922,197.614 277.5,193C 277.836,191.97 278.503,191.47 279.5,191.5C 278.438,192.575 278.438,193.575 279.5,194.5C 281.386,193.15 282.886,191.483 284,189.5C 285.892,191.984 288.392,193.318 291.5,193.5C 291.969,199.162 292.469,204.829 293,210.5C 293.498,207.183 293.665,203.85 293.5,200.5C 297.182,200.335 300.848,200.501 304.5,201C 305.085,202.302 305.751,203.469 306.5,204.5 Z"
         id="path1121" />
    </g>
    <g
       id="g1127"
       style="fill:#209bdb;fill-opacity:1">
      <path
         style="opacity:1;fill:#209bdb;fill-opacity:1"
         fill="#78818d"
         d="M 281.5,243.5 C 282.71,243.932 283.71,244.599 284.5,245.5C 282.821,245.715 281.821,245.048 281.5,243.5 Z"
         id="path1125" />
    </g>
    <g
       id="g1131"
       style="fill:#209bdb;fill-opacity:1">
      <path
         style="opacity:1;fill:#209bdb;fill-opacity:1"
         fill="#a9b9c0"
         d="M 274.5,242.5 C 259.097,237.255 243.431,236.255 227.5,239.5C 228.681,237.933 230.347,237.099 232.5,237C 246.556,235.394 260.222,236.727 273.5,241C 274.056,241.383 274.389,241.883 274.5,242.5 Z"
         id="path1129" />
    </g>
    <g
       id="g1135"
       style="fill:#209bdb;fill-opacity:1">
      <path
         style="opacity:1;fill:#209bdb;fill-opacity:1"
         fill="#c6d1da"
         d="M 103.5,417.5 C 105.357,418.602 106.691,420.269 107.5,422.5C 109.514,427.847 111.514,433.181 113.5,438.5C 111.772,435.551 109.938,432.551 108,429.5C 106.768,425.375 105.268,421.375 103.5,417.5 Z"
         id="path1133" />
    </g>
    <g
       id="g1147"
       style="fill:#209bdb;fill-opacity:1">
      <path
         style="opacity:1;fill:#209bdb;fill-opacity:1"
         fill="#182b3a"
         d="M 420.5,427.5 C 448.833,427.5 477.167,427.5 505.5,427.5C 505.5,429.167 505.5,430.833 505.5,432.5C 504.261,437.7 503.261,443.033 502.5,448.5C 500.179,450.09 499.179,452.423 499.5,455.5C 498.662,455.842 498.328,456.508 498.5,457.5C 496.517,460.793 494.517,464.126 492.5,467.5C 469.523,491.811 446.189,515.811 422.5,539.5C 422.414,538.504 422.748,537.671 423.5,537C 422.167,537 420.833,537 419.5,537C 418,535.167 416.5,533.333 415,531.5C 410.333,532.833 405.667,532.833 401,531.5C 398.551,532.877 398.051,534.711 399.5,537C 398.571,538.077 397.904,539.244 397.5,540.5C 396.246,538.462 394.579,536.796 392.5,535.5C 392.631,534.761 392.464,534.094 392,533.5C 373.027,514.861 354.027,496.194 335,477.5C 330.123,471.491 325.956,465.157 322.5,458.5C 321.202,454.912 319.536,451.579 317.5,448.5C 316.965,444.451 315.632,440.785 313.5,437.5C 313.577,433.785 313.244,430.119 312.5,426.5C 322.835,426.208 333.168,425.875 343.5,425.5C 351.827,425.095 360.16,424.762 368.5,424.5C 385.781,426.261 403.115,427.261 420.5,427.5 Z"
         id="path1145" />
    </g>
    <g
       id="g1159"
       style="fill:#209bdb;fill-opacity:1">
      <path
         style="opacity:1;fill:#209bdb;fill-opacity:1"
         fill="#54626b"
         d="M 747.5,431.5 C 747.088,433.887 746.088,435.887 744.5,437.5C 744.621,434.895 745.621,432.895 747.5,431.5 Z"
         id="path1157" />
    </g>
    <g
       id="g1167"
       style="fill:#209bdb;fill-opacity:1">
      <path
         style="opacity:1;fill:#209bdb;fill-opacity:1"
         fill="#6d7581"
         d="M 556.5,438.5 C 556.741,440.898 556.074,442.898 554.5,444.5C 554.259,442.102 554.926,440.102 556.5,438.5 Z"
         id="path1165" />
    </g>
    <g
       id="g1171"
       style="fill:#209bdb;fill-opacity:1">
      <path
         style="opacity:1;fill:#209bdb;fill-opacity:1"
         fill="#7c8b9c"
         d="M 76.5,438.5 C 78.896,442.25 80.896,446.25 82.5,450.5C 81.0941,448.526 79.5941,446.526 78,444.5C 76.872,442.655 76.372,440.655 76.5,438.5 Z"
         id="path1169" />
    </g>
    <g
       id="g1199"
       style="fill:#209bdb;fill-opacity:1">
      <path
         style="opacity:1;fill:#209bdb;fill-opacity:1"
         fill="#969fa7"
         d="M 152.5,473.5 C 154.967,473.755 156.967,474.755 158.5,476.5C 156.033,476.245 154.033,475.245 152.5,473.5 Z"
         id="path1197" />
    </g>
    <g
       id="g1207"
       style="fill:#209bdb;fill-opacity:1">
      <path
         style="opacity:1;fill:#209bdb;fill-opacity:1"
         fill="#60707c"
         d="M 236.5,481.5 C 241.776,479.317 245.11,480.984 246.5,486.5C 244.815,485.816 243.815,484.483 243.5,482.5C 241.257,481.526 238.924,481.192 236.5,481.5 Z"
         id="path1205" />
    </g>
    <g
       id="g1211"
       style="fill:#209bdb;fill-opacity:1">
      <path
         style="opacity:1;fill:#209bdb;fill-opacity:1"
         fill="#53646f"
         d="M 649.5,480.5 C 648.737,481.268 647.737,481.768 646.5,482C 636.658,482.825 626.991,482.658 617.5,481.5C 620.5,481.5 623.5,481.5 626.5,481.5C 634.201,481.691 641.868,481.358 649.5,480.5 Z"
         id="path1209" />
    </g>
    <g
       id="g1219"
       style="fill:#209bdb;fill-opacity:1">
      <path
         style="opacity:1;fill:#209bdb;fill-opacity:1"
         fill="#142839"
         d="M 690.5,497.5 C 690.5,497.833 690.5,498.167 690.5,498.5C 688.033,498.755 686.033,499.755 684.5,501.5C 682.973,501.427 681.973,502.094 681.5,503.5C 673.015,506.884 664.349,509.884 655.5,512.5C 651.159,512.658 647.159,513.658 643.5,515.5C 641.167,515.5 638.833,515.5 636.5,515.5C 607.845,516.402 579.178,516.735 550.5,516.5C 550.5,515.5 550.5,514.5 550.5,513.5C 551.41,511.981 552.243,510.315 553,508.5C 553.671,507.748 554.504,507.414 555.5,507.5C 558.579,505.98 561.912,505.147 565.5,505C 566.46,503.581 567.293,502.081 568,500.5C 568.692,501.025 569.192,501.692 569.5,502.5C 568.5,503.833 567.5,505.167 566.5,506.5C 566.833,506.833 567.167,507.167 567.5,507.5C 568.167,506.833 568.833,506.167 569.5,505.5C 571.62,506.872 572.62,506.205 572.5,503.5C 573.5,503.5 574.5,503.5 575.5,503.5C 575.238,502.022 575.571,500.689 576.5,499.5C 578.747,500.374 581.08,500.708 583.5,500.5C 583.5,499.5 583.5,498.5 583.5,497.5C 585.103,497.312 586.437,497.812 587.5,499C 586.577,501.041 586.244,503.208 586.5,505.5C 601.5,505.5 616.5,505.5 631.5,505.5C 631.5,501.5 631.5,497.5 631.5,493.5C 608.833,493.167 608.833,492.833 631.5,492.5C 631.5,490.833 631.5,489.167 631.5,487.5C 638.134,487.323 638.134,486.823 631.5,486C 633.5,485.333 635.5,485.333 637.5,486C 638.833,486.667 638.833,487.333 637.5,488C 643.157,488.499 648.824,488.666 654.5,488.5C 656.238,480.639 658.238,480.805 660.5,489C 664.167,489.333 667.833,489.667 671.5,490C 670.167,490.667 670.167,491.333 671.5,492C 673.112,492.72 674.612,492.554 676,491.5C 676.196,493.286 677.029,494.619 678.5,495.5C 679.967,495.277 681.467,494.944 683,494.5C 684.935,496.759 687.435,497.759 690.5,497.5 Z"
         id="path1217" />
    </g>
    <g
       id="g1223"
       style="fill:#209bdb;fill-opacity:1">
      <path
         style="opacity:1;fill:#209bdb;fill-opacity:1"
         fill="#7f8e9f"
         d="M 287.5,496.5 C 291.234,499.231 294.234,502.564 296.5,506.5C 292.766,503.769 289.766,500.436 287.5,496.5 Z"
         id="path1221" />
    </g>
    <g
       id="g1231"
       style="fill:#209bdb;fill-opacity:1">
      <path
         style="opacity:1;fill:#209bdb;fill-opacity:1"
         fill="#667785"
         d="M 690.5,498.5 C 688.967,500.245 686.967,501.245 684.5,501.5C 686.033,499.755 688.033,498.755 690.5,498.5 Z"
         id="path1229" />
    </g>
    <g
       id="g1243"
       style="fill:#209bdb;fill-opacity:1">
      <path
         style="opacity:1;fill:#209bdb;fill-opacity:1"
         fill="#687686"
         d="M 655.5,512.5 C 651.841,514.342 647.841,515.342 643.5,515.5C 647.159,513.658 651.159,512.658 655.5,512.5 Z"
         id="path1241" />
    </g>
    <g
       id="g1251"
       style="fill:#209bdb;fill-opacity:1">
      <path
         style="opacity:1;fill:#209bdb;fill-opacity:1"
         fill="#8e9ca9"
         d="M 550.5,513.5 C 550.5,514.5 550.5,515.5 550.5,516.5C 579.178,516.735 607.845,516.402 636.5,515.5C 633.359,516.321 630.025,516.821 626.5,517C 600.835,517.5 575.169,517.667 549.5,517.5C 549.5,516.5 549.5,515.5 549.5,514.5C 549.5,513.833 549.833,513.5 550.5,513.5 Z"
         id="path1249" />
    </g>
    <g
       id="g1255"
       style="fill:#209bdb;fill-opacity:1">
      <path
         style="opacity:1;fill:#209bdb;fill-opacity:1"
         fill="#a0a8b2"
         d="M 346.5,518.5 C 349.833,519.167 351.833,521.167 352.5,524.5C 350.5,522.5 348.5,520.5 346.5,518.5 Z"
         id="path1253" />
    </g>
    <g
       id="g1259"
       style="fill:#209bdb;fill-opacity:1">
      <path
         style="opacity:1;fill:#209bdb;fill-opacity:1"
         fill="#6a6f75"
         d="M 463.5,528.5 C 462.243,531.427 460.243,533.761 457.5,535.5C 458.757,532.573 460.757,530.239 463.5,528.5 Z"
         id="path1257" />
    </g>
    <g
       id="g1263"
       style="fill:#209bdb;fill-opacity:1">
      <path
         style="opacity:1;fill:#209bdb;fill-opacity:1"
         fill="#9fa7b0"
         d="M 367.5,538.5 C 370.427,539.757 372.761,541.757 374.5,544.5C 371.573,543.243 369.239,541.243 367.5,538.5 Z"
         id="path1261" />
    </g>
    <g
       id="g1267"
       style="fill:#209bdb;fill-opacity:1">
      <path
         style="opacity:1;fill:#209bdb;fill-opacity:1"
         fill="#535a5e"
         d="M 457.5,535.5 C 455.431,538.573 452.764,540.906 449.5,542.5C 451.543,539.457 454.21,537.124 457.5,535.5 Z"
         id="path1265" />
    </g>
    <g
       id="g1271"
       style="fill:#209bdb;fill-opacity:1">
      <path
         style="opacity:1;fill:#209bdb;fill-opacity:1"
         fill="#7a899b"
         d="M 326.5,538.5 C 332.892,543.89 338.559,549.89 343.5,556.5C 337.108,551.11 331.441,545.11 326.5,538.5 Z"
         id="path1269" />
    </g>
    <g
       id="g1275"
       style="fill:#209bdb;fill-opacity:1">
      <path
         style="opacity:1;fill:#209bdb;fill-opacity:1"
         fill="#11212e"
         d="M 422.5,539.5 C 421.094,539.973 420.427,540.973 420.5,542.5C 418.955,543.23 418.122,544.563 418,546.5C 417.5,557.495 417.333,568.495 417.5,579.5C 417.167,579.5 416.833,579.5 416.5,579.5C 415.662,579.842 415.328,580.508 415.5,581.5C 414.78,577.3 414.114,572.967 413.5,568.5C 411.859,565.024 409.192,563.024 405.5,562.5C 405.822,568.358 405.489,574.025 404.5,579.5C 404.5,577.5 404.5,575.5 404.5,573.5C 404.546,566.816 404.213,560.149 403.5,553.5C 403.461,551.048 402.794,549.048 401.5,547.5C 401.002,544.674 399.669,542.34 397.5,540.5C 397.904,539.244 398.571,538.077 399.5,537C 398.051,534.711 398.551,532.877 401,531.5C 405.667,532.833 410.333,532.833 415,531.5C 416.5,533.333 418,535.167 419.5,537C 420.833,537 422.167,537 423.5,537C 422.748,537.671 422.414,538.504 422.5,539.5 Z"
         id="path1273" />
    </g>
    <g
       id="g1279"
       style="fill:#209bdb;fill-opacity:1">
      <path
         style="opacity:1;fill:#209bdb;fill-opacity:1"
         fill="#8b939d"
         d="M 439.5,551.5 C 438.523,562.419 438.19,573.419 438.5,584.5C 437.834,579.177 437.501,573.677 437.5,568C 437.505,562.124 438.171,556.624 439.5,551.5 Z"
         id="path1277" />
    </g>
    <g
       id="g1283"
       style="fill:#209bdb;fill-opacity:1">
      <path
         style="opacity:1;fill:#209bdb;fill-opacity:1"
         fill="#69747c"
         d="M 380.5,550.5 C 381.222,550.918 381.722,551.584 382,552.5C 382.667,560.833 382.667,569.167 382,577.5C 381.617,578.056 381.117,578.389 380.5,578.5C 381.775,569.186 381.775,559.853 380.5,550.5 Z"
         id="path1281" />
    </g>
    <g
       id="g1287"
       style="fill:#209bdb;fill-opacity:1">
      <path
         style="opacity:1;fill:#209bdb;fill-opacity:1"
         fill="#4c5e6a"
         d="M 401.5,547.5 C 402.794,549.048 403.461,551.048 403.5,553.5C 404.213,560.149 404.546,566.816 404.5,573.5C 403.833,571.833 403.167,570.167 402.5,568.5C 402.795,561.412 402.462,554.412 401.5,547.5 Z"
         id="path1285" />
    </g>
    <g
       id="g1291"
       style="fill:#209bdb;fill-opacity:1">
      <path
         style="opacity:1;fill:#209bdb;fill-opacity:1"
         fill="#1c3644"
         d="M 415.5,581.5 C 412.901,583.24 410.068,584.906 407,586.5C 404.866,584.713 404.033,582.38 404.5,579.5C 405.489,574.025 405.822,568.358 405.5,562.5C 409.192,563.024 411.859,565.024 413.5,568.5C 414.114,572.967 414.78,577.3 415.5,581.5 Z"
         id="path1289" />
    </g>
    <g
       id="g1295"
       style="fill:#209bdb;fill-opacity:1">
      <path
         style="opacity:1;fill:#209bdb;fill-opacity:1"
         fill="#c0c7cd"
         d="M 420.5,542.5 C 419.05,554.894 418.05,567.228 417.5,579.5C 417.333,568.495 417.5,557.495 418,546.5C 418.122,544.563 418.955,543.23 420.5,542.5 Z"
         id="path1293" />
    </g>
    <g
       id="g1299"
       style="fill:#209bdb;fill-opacity:1">
      <path
         style="opacity:1;fill:#209bdb;fill-opacity:1"
         fill="#14232f"
         d="M 641.5,594.5 C 636.167,595.833 630.833,595.833 625.5,594.5C 618.241,588.488 615.908,580.821 618.5,571.5C 624.033,560.884 631.699,558.884 641.5,565.5C 652.088,575.192 652.088,584.858 641.5,594.5 Z"
         id="path1297" />
    </g>
    <g
       id="g1303"
       style="fill:#209bdb;fill-opacity:1">
      <path
         style="opacity:1;fill:#209bdb;fill-opacity:1"
         fill="#13222f"
         d="M 192.5,562.5 C 199.002,564.673 204.002,568.673 207.5,574.5C 207.495,578.534 207.162,582.534 206.5,586.5C 205.833,586.5 205.5,586.833 205.5,587.5C 200.363,594.879 193.363,597.212 184.5,594.5C 182.187,593.5 180.187,592.166 178.5,590.5C 176.328,583.93 175.995,577.264 177.5,570.5C 179.232,567.918 181.232,565.418 183.5,563C 186.482,562.502 189.482,562.335 192.5,562.5 Z"
         id="path1301" />
    </g>
    <g
       id="g1307"
       style="fill:#209bdb;fill-opacity:1">
      <path
         style="opacity:1;fill:#209bdb;fill-opacity:1"
         fill="#758089"
         d="M 207.5,574.5 C 208.16,575.964 208.493,577.631 208.5,579.5C 208.684,582.205 208.017,584.538 206.5,586.5C 207.162,582.534 207.495,578.534 207.5,574.5 Z"
         id="path1305" />
    </g>
    <g
       id="g1311"
       style="fill:#209bdb;fill-opacity:1">
      <path
         style="opacity:1;fill:#209bdb;fill-opacity:1"
         fill="#848e99"
         d="M 177.5,570.5 C 175.995,577.264 176.328,583.93 178.5,590.5C 177.542,590.047 176.708,589.381 176,588.5C 174.241,582.799 174.241,577.132 176,571.5C 176.383,570.944 176.883,570.611 177.5,570.5 Z"
         id="path1309" />
    </g>
    <g
       id="g1315"
       style="fill:#209bdb;fill-opacity:1">
      <path
         style="opacity:1;fill:#209bdb;fill-opacity:1"
         fill="#14293a"
         d="M 464.5,569.5 C 484.569,591.731 505.069,613.398 526,634.5C 532.864,643.059 539.364,651.893 545.5,661C 546.233,663.72 547.233,666.22 548.5,668.5C 548.657,669.873 548.49,671.207 548,672.5C 547.333,671.167 546.333,670.167 545,669.5C 544.71,667.048 544.044,664.715 543,662.5C 542.333,661.167 541.667,661.167 541,662.5C 540.013,665.697 540.513,668.53 542.5,671C 541.949,672.398 541.616,673.732 541.5,675C 543.107,676.049 543.773,677.549 543.5,679.5C 544.5,679.5 545.5,679.5 546.5,679.5C 546.317,681.936 546.984,684.103 548.5,686C 542.509,686.499 536.509,686.666 530.5,686.5C 530.5,685.5 530.5,684.5 530.5,683.5C 531.043,683.44 531.376,683.107 531.5,682.5C 530.693,673.214 530.193,663.881 530,654.5C 526.02,653.294 522.187,651.961 518.5,650.5C 518.5,649.5 518.5,648.5 518.5,647.5C 516.692,647.509 515.025,647.009 513.5,646C 512.949,644.602 512.616,643.268 512.5,642C 510.58,640.878 508.58,640.044 506.5,639.5C 506.5,638.5 506.5,637.5 506.5,636.5C 502.898,636.494 500.898,634.66 500.5,631C 498.285,629.956 495.952,629.29 493.5,629C 494.973,628.29 495.64,627.124 495.5,625.5C 492.835,624.456 490.168,623.289 487.5,622C 486.736,619.931 486.236,617.764 486,615.5C 481.409,611.658 476.242,608.991 470.5,607.5C 468.945,607.722 467.611,608.389 466.5,609.5C 465.618,608.24 464.618,607.074 463.5,606C 464.293,604.915 464.96,603.748 465.5,602.5C 464.899,598.841 464.233,595.174 463.5,591.5C 462.491,594.987 460.158,596.32 456.5,595.5C 456.335,592.15 456.502,588.817 457,585.5C 458.205,584.929 459.372,584.262 460.5,583.5C 457.262,582.038 453.929,580.871 450.5,580C 446.114,577.393 443.614,573.56 443,568.5C 442.267,563.115 442.433,557.782 443.5,552.5C 444.93,552.579 446.264,552.246 447.5,551.5C 448.541,549.009 449.374,549.009 450,551.5C 451.826,547.963 454.16,547.629 457,550.5C 459.106,548.709 461.606,548.042 464.5,548.5C 464.5,549.5 464.5,550.5 464.5,551.5C 463.5,551.5 462.5,551.5 461.5,551.5C 461.5,552.5 461.5,553.5 461.5,554.5C 460.5,554.5 459.5,554.5 458.5,554.5C 457.551,556.737 456.884,559.071 456.5,561.5C 458.167,561.5 459.833,561.5 461.5,561.5C 461.335,564.518 461.502,567.518 462,570.5C 462.342,568.381 463.175,568.047 464.5,569.5 Z"
         id="path1313" />
    </g>
    <g
       id="g1319"
       style="fill:#209bdb;fill-opacity:1">
      <path
         style="opacity:1;fill:#209bdb;fill-opacity:1"
         fill="#a0aab4"
         d="M 402.5,568.5 C 403.167,570.167 403.833,571.833 404.5,573.5C 404.5,575.5 404.5,577.5 404.5,579.5C 404.033,582.38 404.866,584.713 407,586.5C 410.068,584.906 412.901,583.24 415.5,581.5C 415.328,580.508 415.662,579.842 416.5,579.5C 416.5,581.5 416.5,583.5 416.5,585.5C 415.566,586.568 415.232,587.901 415.5,589.5C 411.5,589.5 407.5,589.5 403.5,589.5C 403.227,582.496 402.894,575.496 402.5,568.5 Z"
         id="path1317" />
    </g>
    <g
       id="g1323"
       style="fill:#209bdb;fill-opacity:1">
      <path
         style="opacity:1;fill:#209bdb;fill-opacity:1"
         fill="#75828d"
         d="M 205.5,587.5 C 204.569,591.429 202.236,594.095 198.5,595.5C 194.253,596.602 189.92,596.768 185.5,596C 184.944,595.617 184.611,595.117 184.5,594.5C 193.363,597.212 200.363,594.879 205.5,587.5 Z"
         id="path1321" />
    </g>
    <g
       id="g1327"
       style="fill:#209bdb;fill-opacity:1">
      <path
         style="opacity:1;fill:#209bdb;fill-opacity:1"
         fill="#49545c"
         d="M 625.5,594.5 C 630.833,595.833 636.167,595.833 641.5,594.5C 639.393,596.652 636.726,597.652 633.5,597.5C 630.274,597.652 627.607,596.652 625.5,594.5 Z"
         id="path1325" />
    </g>
    <g
       id="g1335"
       style="fill:#209bdb;fill-opacity:1">
      <path
         style="opacity:1;fill:#209bdb;fill-opacity:1"
         fill="#152835"
         d="M 363.5,536.5 C 365.062,536.733 366.395,537.4 367.5,538.5C 369.239,541.243 371.573,543.243 374.5,544.5C 376.167,546.833 378.167,548.833 380.5,550.5C 381.775,559.853 381.775,569.186 380.5,578.5C 380.071,582.024 378.571,585.024 376,587.5C 369.298,594.369 362.465,601.036 355.5,607.5C 354.881,602.794 356.881,600.127 361.5,599.5C 361.306,596.67 360.639,594.004 359.5,591.5C 354.851,590.705 350.184,590.539 345.5,591C 343.913,594.256 341.413,596.423 338,597.5C 336.278,600.455 334.444,603.288 332.5,606C 333.5,606.333 334.5,606.667 335.5,607C 332.518,607.498 329.518,607.665 326.5,607.5C 326.657,608.873 326.49,610.207 326,611.5C 324.017,612.982 322.184,614.649 320.5,616.5C 321.167,616.833 321.833,617.167 322.5,617.5C 321.675,618.386 320.675,618.719 319.5,618.5C 319.799,620.604 319.466,622.604 318.5,624.5C 318.346,623.091 318.179,621.424 318,619.5C 317.517,620.448 317.351,621.448 317.5,622.5C 315.833,622.5 314.167,622.5 312.5,622.5C 309.948,626.766 308.282,631.432 307.5,636.5C 306.935,634.49 305.935,632.824 304.5,631.5C 304.08,637.144 302.747,642.477 300.5,647.5C 299.5,647.5 298.5,647.5 297.5,647.5C 297.5,648.5 297.5,649.5 297.5,650.5C 296.5,650.5 295.5,650.5 294.5,650.5C 294.5,651.5 294.5,652.5 294.5,653.5C 292.04,654.937 289.374,655.937 286.5,656.5C 286.5,659.167 286.5,661.833 286.5,664.5C 283.635,664.055 281.135,664.722 279,666.5C 278.667,665.833 278.333,665.167 278,664.5C 277.721,666.763 276.888,669.097 275.5,671.5C 273.61,671.297 272.11,671.963 271,673.5C 270,676.5 269,679.5 268,682.5C 267.54,679.038 268.04,675.704 269.5,672.5C 269.263,671.209 269.596,670.209 270.5,669.5C 272.065,667.491 273.065,665.157 273.5,662.5C 273.975,660.216 274.975,658.216 276.5,656.5C 283.506,647.147 290.506,637.814 297.5,628.5C 311.762,613.813 326.262,599.48 341,585.5C 344.667,579.833 349.333,575.167 355,571.5C 354.244,568.211 352.744,565.211 350.5,562.5C 352.042,561.859 353.376,560.859 354.5,559.5C 353.5,558.167 352.5,556.833 351.5,555.5C 349.1,554.915 347.1,553.748 345.5,552C 346.127,549.865 346.627,547.698 347,545.5C 347.5,546 348,546.5 348.5,547C 347.289,548.113 347.289,549.28 348.5,550.5C 349.274,551.711 350.107,551.711 351,550.5C 351.667,547.167 351.667,543.833 351,540.5C 349.301,539.594 347.467,539.261 345.5,539.5C 345.33,536.734 344.664,534.067 343.5,531.5C 343.997,529.182 344.33,526.848 344.5,524.5C 346.592,524.561 348.092,525.561 349,527.5C 349.308,526.692 349.808,526.025 350.5,525.5C 352.744,527.62 354.41,530.12 355.5,533C 355.167,533.333 354.833,533.667 354.5,534C 357.333,535.5 360.167,537 363,538.5C 363.464,537.906 363.631,537.239 363.5,536.5 Z"
         id="path1333" />
    </g>
    <g
       id="g1339"
       style="fill:#209bdb;fill-opacity:1">
      <path
         style="opacity:1;fill:#209bdb;fill-opacity:1"
         fill="#8da2af"
         d="M 351.5,612.5 C 349.57,616.1 346.903,619.1 343.5,621.5C 345.43,617.9 348.097,614.9 351.5,612.5 Z"
         id="path1337" />
    </g>
    <g
       id="g1347"
       style="fill:#209bdb;fill-opacity:1">
      <path
         style="opacity:1;fill:#209bdb;fill-opacity:1"
         fill="#142333"
         d="M 443.5,552.5 C 442.433,557.782 442.267,563.115 443,568.5C 443.614,573.56 446.114,577.393 450.5,580C 453.929,580.871 457.262,582.038 460.5,583.5C 459.372,584.262 458.205,584.929 457,585.5C 456.502,588.817 456.335,592.15 456.5,595.5C 460.158,596.32 462.491,594.987 463.5,591.5C 464.233,595.174 464.899,598.841 465.5,602.5C 464.96,603.748 464.293,604.915 463.5,606C 464.618,607.074 465.618,608.24 466.5,609.5C 467.611,608.389 468.945,607.722 470.5,607.5C 476.242,608.991 481.409,611.658 486,615.5C 486.236,617.764 486.736,619.931 487.5,622C 490.168,623.289 492.835,624.456 495.5,625.5C 495.64,627.124 494.973,628.29 493.5,629C 495.952,629.29 498.285,629.956 500.5,631C 500.898,634.66 502.898,636.494 506.5,636.5C 506.5,637.5 506.5,638.5 506.5,639.5C 508.58,640.044 510.58,640.878 512.5,642C 512.616,643.268 512.949,644.602 513.5,646C 515.025,647.009 516.692,647.509 518.5,647.5C 518.5,648.5 518.5,649.5 518.5,650.5C 522.187,651.961 526.02,653.294 530,654.5C 530.193,663.881 530.693,673.214 531.5,682.5C 531.376,683.107 531.043,683.44 530.5,683.5C 529.005,683.415 528.005,684.081 527.5,685.5C 529.72,688.785 530.887,692.451 531,696.5C 531.956,708.483 532.622,720.483 533,732.5C 534.544,734.468 535.711,736.635 536.5,739C 535.965,741.109 534.965,741.609 533.5,740.5C 531.28,744.492 530.114,748.826 530,753.5C 527.448,756.194 526.281,755.527 526.5,751.5C 527.378,748.239 528.044,744.906 528.5,741.5C 529.268,740.737 529.768,739.737 530,738.5C 530.827,725.66 530.66,712.993 529.5,700.5C 528.755,697.61 528.088,694.61 527.5,691.5C 526.312,686.777 524.812,682.111 523,677.5C 522.617,676.944 522.117,676.611 521.5,676.5C 521.108,674.821 520.608,673.154 520,671.5C 518.428,668.893 516.594,666.559 514.5,664.5C 510.916,658.247 506.249,652.914 500.5,648.5C 497.23,643.56 493.23,639.227 488.5,635.5C 487.972,634.279 487.305,633.113 486.5,632C 484.032,631.021 482.032,629.521 480.5,627.5C 480.573,625.973 479.906,624.973 478.5,624.5C 465.124,611.158 451.791,597.825 438.5,584.5C 438.19,573.419 438.523,562.419 439.5,551.5C 440.423,550.697 441.423,550.53 442.5,551C 440.789,552.133 440.289,553.633 441,555.5C 441.377,554.058 442.21,553.058 443.5,552.5 Z"
         id="path1345" />
    </g>
    <g
       id="g1351"
       style="fill:#209bdb;fill-opacity:1">
      <path
         style="opacity:1;fill:#209bdb;fill-opacity:1"
         fill="#848895"
         d="M 478.5,624.5 C 479.906,624.973 480.573,625.973 480.5,627.5C 479.094,627.027 478.427,626.027 478.5,624.5 Z"
         id="path1349" />
    </g>
    <g
       id="g1355"
       style="fill:#209bdb;fill-opacity:1">
      <path
         style="opacity:1;fill:#209bdb;fill-opacity:1"
         fill="#aaafb8"
         d="M 488.5,635.5 C 493.23,639.227 497.23,643.56 500.5,648.5C 495.77,644.773 491.77,640.44 488.5,635.5 Z"
         id="path1353" />
    </g>
    <g
       id="g1359"
       style="fill:#209bdb;fill-opacity:1">
      <path
         style="opacity:1;fill:#209bdb;fill-opacity:1"
         fill="#a5b4c0"
         d="M 317.5,648.5 C 315.628,653.043 312.628,656.71 308.5,659.5C 311.129,655.537 314.129,651.871 317.5,648.5 Z"
         id="path1357" />
    </g>
    <g
       id="g1363"
       style="fill:#209bdb;fill-opacity:1">
      <path
         style="opacity:1;fill:#209bdb;fill-opacity:1"
         fill="#0b1926"
         d="M 414.5,655.5 C 416.728,656.377 418.728,657.71 420.5,659.5C 420.833,660.167 421.167,660.833 421.5,661.5C 422.833,665.167 422.833,668.833 421.5,672.5C 419.5,675.167 417.167,677.5 414.5,679.5C 400.115,680.456 395.115,674.122 399.5,660.5C 400.5,659.167 401.5,657.833 402.5,656.5C 406.452,655.728 410.452,655.395 414.5,655.5 Z"
         id="path1361" />
    </g>
    <g
       id="g1367"
       style="fill:#209bdb;fill-opacity:1">
      <path
         style="opacity:1;fill:#209bdb;fill-opacity:1"
         fill="#9dacb6"
         d="M 307.5,660.5 C 306.92,662.749 305.587,664.415 303.5,665.5C 304.08,663.251 305.413,661.585 307.5,660.5 Z"
         id="path1365" />
    </g>
    <g
       id="g1371"
       style="fill:#209bdb;fill-opacity:1">
      <path
         style="opacity:1;fill:#209bdb;fill-opacity:1"
         fill="#162835"
         d="M 548.5,668.5 C 552.667,676.956 555.333,685.956 556.5,695.5C 558.109,708.105 558.775,720.772 558.5,733.5C 557.291,737.618 556.624,741.951 556.5,746.5C 552.715,756.933 549.215,767.599 546,778.5C 534.878,801.454 518.378,819.454 496.5,832.5C 496.5,831.5 496.5,830.5 496.5,829.5C 497.552,829.649 498.552,829.483 499.5,829C 499.167,828.667 498.833,828.333 498.5,828C 500.174,826.494 501.174,824.661 501.5,822.5C 502.5,822.5 503.5,822.5 504.5,822.5C 504.784,819.223 504.451,816.057 503.5,813C 505.25,811.681 507.25,811.181 509.5,811.5C 509.5,810.5 509.5,809.5 509.5,808.5C 510.675,808.719 511.675,808.386 512.5,807.5C 508.878,806.675 505.211,806.175 501.5,806C 500.663,804.989 500.33,803.822 500.5,802.5C 499.5,802.5 498.5,802.5 497.5,802.5C 497.657,803.873 497.49,805.207 497,806.5C 494.973,808.527 492.973,810.527 491,812.5C 490.501,816.152 490.335,819.818 490.5,823.5C 483.923,824.267 477.757,823.267 472,820.5C 470.75,821.573 469.416,821.573 468,820.5C 467.894,821.794 466.894,822.461 465,822.5C 463.624,822.316 462.791,821.649 462.5,820.5C 465.272,820.241 467.605,819.241 469.5,817.5C 480.712,810.625 491.379,802.959 501.5,794.5C 505.299,790.909 508.633,786.909 511.5,782.5C 512.305,779.183 514.139,776.517 517,774.5C 518.463,769.086 520.63,764.086 523.5,759.5C 524.251,756.754 525.251,754.087 526.5,751.5C 526.281,755.527 527.448,756.194 530,753.5C 530.114,748.826 531.28,744.492 533.5,740.5C 534.965,741.609 535.965,741.109 536.5,739C 535.711,736.635 534.544,734.468 533,732.5C 532.622,720.483 531.956,708.483 531,696.5C 530.887,692.451 529.72,688.785 527.5,685.5C 528.005,684.081 529.005,683.415 530.5,683.5C 530.5,684.5 530.5,685.5 530.5,686.5C 536.509,686.666 542.509,686.499 548.5,686C 546.984,684.103 546.317,681.936 546.5,679.5C 545.5,679.5 544.5,679.5 543.5,679.5C 543.773,677.549 543.107,676.049 541.5,675C 541.616,673.732 541.949,672.398 542.5,671C 540.513,668.53 540.013,665.697 541,662.5C 541.667,661.167 542.333,661.167 543,662.5C 544.044,664.715 544.71,667.048 545,669.5C 546.333,670.167 547.333,671.167 548,672.5C 548.49,671.207 548.657,669.873 548.5,668.5 Z"
         id="path1369" />
    </g>
    <g
       id="g1375"
       style="fill:#209bdb;fill-opacity:1">
      <path
         style="opacity:1;fill:#209bdb;fill-opacity:1"
         fill="#606c75"
         d="M 273.5,662.5 C 273.065,665.157 272.065,667.491 270.5,669.5C 270.552,666.654 271.552,664.32 273.5,662.5 Z"
         id="path1373" />
    </g>
    <g
       id="g1383"
       style="fill:#209bdb;fill-opacity:1">
      <path
         style="opacity:1;fill:#209bdb;fill-opacity:1"
         fill="#56636e"
         d="M 421.5,661.5 C 422.117,661.611 422.617,661.944 423,662.5C 423.667,665.5 423.667,668.5 423,671.5C 422.617,672.056 422.117,672.389 421.5,672.5C 422.833,668.833 422.833,665.167 421.5,661.5 Z"
         id="path1381" />
    </g>
    <g
       id="g1387"
       style="fill:#209bdb;fill-opacity:1">
      <path
         style="opacity:1;fill:#209bdb;fill-opacity:1"
         fill="#6f7e8a"
         d="M 414.5,655.5 C 417.878,654.891 419.878,656.224 420.5,659.5C 418.728,657.71 416.728,656.377 414.5,655.5 Z"
         id="path1385" />
    </g>
    <g
       id="g1391"
       style="fill:#209bdb;fill-opacity:1">
      <path
         style="opacity:1;fill:#209bdb;fill-opacity:1"
         fill="#56656e"
         d="M 414.5,655.5 C 410.452,655.395 406.452,655.728 402.5,656.5C 404.462,654.983 406.795,654.316 409.5,654.5C 411.369,654.507 413.036,654.84 414.5,655.5 Z"
         id="path1389" />
    </g>
    <g
       id="g1395"
       style="fill:#209bdb;fill-opacity:1">
      <path
         style="opacity:1;fill:#209bdb;fill-opacity:1"
         fill="#646c76"
         d="M 397.5,616.5 C 397.307,620.566 397.64,624.566 398.5,628.5C 397.883,628.389 397.383,628.056 397,627.5C 396.19,623.642 396.357,619.976 397.5,616.5 Z"
         id="path1393" />
    </g>
    <g
       id="g1399"
       style="fill:#209bdb;fill-opacity:1">
      <path
         style="opacity:1;fill:#209bdb;fill-opacity:1"
         fill="#081423"
         d="M 417.5,608.5 C 419.756,609.465 421.423,611.132 422.5,613.5C 425.938,622.469 423.271,628.636 414.5,632C 408.375,633.568 403.042,632.401 398.5,628.5C 397.64,624.566 397.307,620.566 397.5,616.5C 398.419,613.673 400.086,611.34 402.5,609.5C 407.343,607.271 412.343,606.938 417.5,608.5 Z"
         id="path1397" />
    </g>
    <g
       id="g1403"
       style="fill:#209bdb;fill-opacity:1">
      <path
         style="opacity:1;fill:#209bdb;fill-opacity:1"
         fill="#576268"
         d="M 417.5,608.5 C 412.343,606.938 407.343,607.271 402.5,609.5C 402.47,608.503 402.97,607.836 404,607.5C 406.124,606.937 408.291,606.604 410.5,606.5C 413.205,606.316 415.538,606.983 417.5,608.5 Z"
         id="path1401" />
    </g>
    <g
       id="g1407"
       style="fill:#209bdb;fill-opacity:1">
      <path
         style="opacity:1;fill:#209bdb;fill-opacity:1"
         fill="#9ca4b0"
         d="M 514.5,664.5 C 516.594,666.559 518.428,668.893 520,671.5C 520.608,673.154 521.108,674.821 521.5,676.5C 518.377,673.024 516.043,669.024 514.5,664.5 Z"
         id="path1405" />
    </g>
    <g
       id="g1411"
       style="fill:#209bdb;fill-opacity:1">
      <path
         style="opacity:1;fill:#209bdb;fill-opacity:1"
         fill="#a0a7b8"
         d="M 521.5,676.5 C 522.117,676.611 522.617,676.944 523,677.5C 524.812,682.111 526.312,686.777 527.5,691.5C 524.269,687.118 522.269,682.118 521.5,676.5 Z"
         id="path1409" />
    </g>
    <g
       id="g1415"
       style="fill:#209bdb;fill-opacity:1">
      <path
         style="opacity:1;fill:#209bdb;fill-opacity:1"
         fill="#7f8692"
         d="M 294.5,683.5 C 294.073,686.01 293.407,688.343 292.5,690.5C 292.338,688.473 292.505,686.473 293,684.5C 293.383,683.944 293.883,683.611 294.5,683.5 Z"
         id="path1413" />
    </g>
    <g
       id="g1419"
       style="fill:#209bdb;fill-opacity:1">
      <path
         style="opacity:1;fill:#209bdb;fill-opacity:1"
         fill="#d3dce1"
         d="M 297.5,676.5 C 295.939,682.466 294.439,688.466 293,694.5C 292.333,709.5 292.333,724.5 293,739.5C 295.139,745.242 296.306,751.242 296.5,757.5C 292.486,748.436 290.486,738.769 290.5,728.5C 290.263,717.802 290.596,707.135 291.5,696.5C 291.205,694.265 291.539,692.265 292.5,690.5C 293.407,688.343 294.073,686.01 294.5,683.5C 294.552,680.654 295.552,678.32 297.5,676.5 Z"
         id="path1417" />
    </g>
    <g
       id="g1423"
       style="fill:#209bdb;fill-opacity:1">
      <path
         style="opacity:1;fill:#209bdb;fill-opacity:1"
         fill="#596775"
         d="M 399.5,713.5 C 406.321,712.345 413.321,712.179 420.5,713C 421.056,713.383 421.389,713.883 421.5,714.5C 414.201,713.65 406.868,713.317 399.5,713.5 Z"
         id="path1421" />
    </g>
    <g
       id="g1427"
       style="fill:#209bdb;fill-opacity:1">
      <path
         style="opacity:1;fill:#209bdb;fill-opacity:1"
         fill="#556067"
         d="M 291.5,696.5 C 290.596,707.135 290.263,717.802 290.5,728.5C 289.342,718.675 289.175,708.675 290,698.5C 290.278,697.584 290.778,696.918 291.5,696.5 Z"
         id="path1425" />
    </g>
    <g
       id="g1431"
       style="fill:#209bdb;fill-opacity:1">
      <path
         style="opacity:1;fill:#209bdb;fill-opacity:1"
         fill="#7d8c99"
         d="M 556.5,695.5 C 557.963,698.203 558.796,701.203 559,704.5C 559.825,714.342 559.658,724.009 558.5,733.5C 558.775,720.772 558.109,708.105 556.5,695.5 Z"
         id="path1429" />
    </g>
    <g
       id="g1435"
       style="fill:#209bdb;fill-opacity:1">
      <path
         style="opacity:1;fill:#209bdb;fill-opacity:1"
         fill="#172c3c"
         d="M 399.5,713.5 C 406.868,713.317 414.201,713.65 421.5,714.5C 424.872,716.174 428.205,717.841 431.5,719.5C 435.141,722.805 438.808,726.138 442.5,729.5C 452.919,742.709 466.419,751.042 483,754.5C 488.926,754.659 494.426,755.659 499.5,757.5C 497.458,761.28 495.791,765.28 494.5,769.5C 487.718,778.619 479.718,786.286 470.5,792.5C 464.53,796.571 458.197,799.904 451.5,802.5C 447.677,804.071 443.677,805.071 439.5,805.5C 439.44,804.957 439.107,804.624 438.5,804.5C 430.241,806.045 421.907,806.545 413.5,806C 416.621,805.274 419.287,803.774 421.5,801.5C 420.833,801.167 420.167,800.833 419.5,800.5C 416.945,802.445 413.945,803.445 410.5,803.5C 408.5,803.167 406.5,802.833 404.5,802.5C 404.167,801.833 403.833,801.167 403.5,800.5C 396.858,799.669 390.191,799.169 383.5,799C 382.62,797.644 382.286,796.144 382.5,794.5C 379.167,794.5 375.833,794.5 372.5,794.5C 372.714,792.856 372.38,791.356 371.5,790C 366.09,789.44 360.756,789.44 355.5,790C 355.055,786.147 353.388,782.98 350.5,780.5C 349.264,779.754 347.93,779.421 346.5,779.5C 346.366,777.708 346.699,776.042 347.5,774.5C 350.823,776.102 352.989,778.769 354,782.5C 355.5,781.667 356.667,780.5 357.5,779C 365.413,778.186 373.246,778.353 381,779.5C 382.262,775.687 382.929,771.687 383,767.5C 386.667,766.833 390.333,766.167 394,765.5C 394.003,762.348 394.17,759.015 394.5,755.5C 396.167,755.5 397.833,755.5 399.5,755.5C 399.5,753.5 399.5,751.5 399.5,749.5C 397.833,749.5 396.167,749.5 394.5,749.5C 394.335,745.818 394.501,742.152 395,738.5C 395.494,740.134 395.66,741.801 395.5,743.5C 398.187,743.664 400.854,743.497 403.5,743C 404.38,741.644 404.714,740.144 404.5,738.5C 402.5,738.5 400.5,738.5 398.5,738.5C 398.286,736.856 398.62,735.356 399.5,734C 398.207,733.51 396.873,733.343 395.5,733.5C 395.5,734.833 395.5,736.167 395.5,737.5C 393.167,737.5 390.833,737.5 388.5,737.5C 387.36,734.237 387.694,731.071 389.5,728C 388.692,727.692 388.025,727.192 387.5,726.5C 388.727,723.105 391.06,720.939 394.5,720C 393.216,719.316 392.049,719.483 391,720.5C 390.536,719.906 390.369,719.239 390.5,718.5C 393.127,716.023 396.127,714.356 399.5,713.5 Z"
         id="path1433" />
    </g>
    <g
       id="g1439"
       style="fill:#209bdb;fill-opacity:1">
      <path
         style="opacity:1;fill:#209bdb;fill-opacity:1"
         fill="#7988a1"
         d="M 431.5,719.5 C 436.373,721.367 440.039,724.7 442.5,729.5C 438.808,726.138 435.141,722.805 431.5,719.5 Z"
         id="path1437" />
    </g>
    <g
       id="g1443"
       style="fill:#209bdb;fill-opacity:1">
      <path
         style="opacity:1;fill:#209bdb;fill-opacity:1"
         fill="#8f959c"
         d="M 529.5,700.5 C 530.66,712.993 530.827,725.66 530,738.5C 529.768,739.737 529.268,740.737 528.5,741.5C 528.517,739.435 528.85,737.435 529.5,735.5C 529.5,723.833 529.5,712.167 529.5,700.5 Z"
         id="path1441" />
    </g>
    <g
       id="g1451"
       style="fill:#209bdb;fill-opacity:1">
      <path
         style="opacity:1;fill:#209bdb;fill-opacity:1"
         fill="#1a303e"
         d="M 390.5,718.5 C 390.369,719.239 390.536,719.906 391,720.5C 392.049,719.483 393.216,719.316 394.5,720C 391.06,720.939 388.727,723.105 387.5,726.5C 388.025,727.192 388.692,727.692 389.5,728C 387.694,731.071 387.36,734.237 388.5,737.5C 390.833,737.5 393.167,737.5 395.5,737.5C 395.5,736.167 395.5,734.833 395.5,733.5C 396.873,733.343 398.207,733.51 399.5,734C 398.62,735.356 398.286,736.856 398.5,738.5C 400.5,738.5 402.5,738.5 404.5,738.5C 404.714,740.144 404.38,741.644 403.5,743C 400.854,743.497 398.187,743.664 395.5,743.5C 395.66,741.801 395.494,740.134 395,738.5C 394.501,742.152 394.335,745.818 394.5,749.5C 396.167,749.5 397.833,749.5 399.5,749.5C 399.5,751.5 399.5,753.5 399.5,755.5C 397.833,755.5 396.167,755.5 394.5,755.5C 394.17,759.015 394.003,762.348 394,765.5C 390.333,766.167 386.667,766.833 383,767.5C 382.929,771.687 382.262,775.687 381,779.5C 373.246,778.353 365.413,778.186 357.5,779C 356.667,780.5 355.5,781.667 354,782.5C 352.989,778.769 350.823,776.102 347.5,774.5C 343.341,771.174 339.674,767.34 336.5,763C 335.351,761.27 335.351,759.604 336.5,758C 335.833,757 335.167,756 334.5,755C 329.845,754.501 325.179,754.334 320.5,754.5C 336.694,753.438 352.027,749.105 366.5,741.5C 374.574,733.757 382.574,726.09 390.5,718.5 Z"
         id="path1449" />
    </g>
    <g
       id="g1455"
       style="fill:#209bdb;fill-opacity:1">
      <path
         style="opacity:1;fill:#209bdb;fill-opacity:1"
         fill="#cbd3d7"
         d="M 529.5,735.5 C 528.85,737.435 528.517,739.435 528.5,741.5C 528.044,744.906 527.378,748.239 526.5,751.5C 525.251,754.087 524.251,756.754 523.5,759.5C 523.505,756.468 523.838,753.468 524.5,750.5C 526.232,745.271 527.898,740.271 529.5,735.5 Z"
         id="path1453" />
    </g>
    <g
       id="g1459"
       style="fill:#209bdb;fill-opacity:1">
      <path
         style="opacity:1;fill:#209bdb;fill-opacity:1"
         fill="#6b7b87"
         d="M 266.5,755.5 C 267.117,755.611 267.617,755.944 268,756.5C 268.44,758.866 268.94,761.199 269.5,763.5C 268.883,763.389 268.383,763.056 268,762.5C 267.56,760.134 267.06,757.801 266.5,755.5 Z"
         id="path1457" />
    </g>
    <g
       id="g1463"
       style="fill:#209bdb;fill-opacity:1">
      <path
         style="opacity:1;fill:#209bdb;fill-opacity:1"
         fill="#999daa"
         d="M 328.5,768.5 C 330.878,770.878 332.878,773.545 334.5,776.5C 331.27,774.623 329.27,771.956 328.5,768.5 Z"
         id="path1461" />
    </g>
    <g
       id="g1467"
       style="fill:#209bdb;fill-opacity:1">
      <path
         style="opacity:1;fill:#209bdb;fill-opacity:1"
         fill="#697281"
         d="M 337.5,779.5 C 340.089,780.419 342.089,782.086 343.5,784.5C 340.911,783.581 338.911,781.914 337.5,779.5 Z"
         id="path1465" />
    </g>
    <g
       id="g1471"
       style="fill:#209bdb;fill-opacity:1">
      <path
         style="opacity:1;fill:#209bdb;fill-opacity:1"
         fill="#172a3b"
         d="M 355.5,607.5 C 354.7,609.573 353.367,611.24 351.5,612.5C 348.097,614.9 345.43,617.9 343.5,621.5C 334.442,630.223 325.775,639.223 317.5,648.5C 314.129,651.871 311.129,655.537 308.5,659.5C 307.833,659.5 307.5,659.833 307.5,660.5C 305.413,661.585 304.08,663.251 303.5,665.5C 300.22,668.388 298.22,672.055 297.5,676.5C 295.552,678.32 294.552,680.654 294.5,683.5C 293.883,683.611 293.383,683.944 293,684.5C 292.505,686.473 292.338,688.473 292.5,690.5C 291.539,692.265 291.205,694.265 291.5,696.5C 290.778,696.918 290.278,697.584 290,698.5C 289.175,708.675 289.342,718.675 290.5,728.5C 290.486,738.769 292.486,748.436 296.5,757.5C 302.959,774.302 313.292,788.302 327.5,799.5C 328.028,800.847 328.195,802.181 328,803.5C 326.556,801.845 324.722,801.178 322.5,801.5C 322.335,804.518 322.502,807.518 323,810.5C 325.179,811.762 327.345,813.095 329.5,814.5C 330.719,813.737 331.719,812.737 332.5,811.5C 334.208,813.691 336.208,814.024 338.5,812.5C 340.518,814.357 342.185,816.524 343.5,819C 346.817,819.498 350.15,819.665 353.5,819.5C 353.117,822.462 354.117,823.462 356.5,822.5C 362.889,826.673 369.389,829.007 376,829.5C 376.273,831.329 377.107,832.829 378.5,834C 382.71,834.738 386.876,834.572 391,833.5C 393.072,834.992 395.238,836.326 397.5,837.5C 401.326,835.635 405.326,835.135 409.5,836C 410.92,837.456 412.253,838.956 413.5,840.5C 414.739,838.993 414.405,837.826 412.5,837C 413.833,835 415.167,835 416.5,837C 415.987,839.718 415.987,842.551 416.5,845.5C 417.788,846.901 419.788,847.901 422.5,848.5C 426.183,846.535 430.183,845.535 434.5,845.5C 434.335,842.15 434.502,838.817 435,835.5C 435.494,837.134 435.66,838.801 435.5,840.5C 438.108,840.394 440.108,839.228 441.5,837C 441.167,836.667 440.833,836.333 440.5,836C 444.725,834.524 449.058,833.19 453.5,832C 455.957,830.488 455.957,829.154 453.5,828C 454.833,827.667 456.167,827.333 457.5,827C 457.167,826.667 456.833,826.333 456.5,826C 458.346,824.97 460.013,823.804 461.5,822.5C 461.328,821.508 461.662,820.842 462.5,820.5C 462.791,821.649 463.624,822.316 465,822.5C 466.894,822.461 467.894,821.794 468,820.5C 469.416,821.573 470.75,821.573 472,820.5C 477.757,823.267 483.923,824.267 490.5,823.5C 490.335,819.818 490.501,816.152 491,812.5C 492.973,810.527 494.973,808.527 497,806.5C 497.49,805.207 497.657,803.873 497.5,802.5C 498.5,802.5 499.5,802.5 500.5,802.5C 500.33,803.822 500.663,804.989 501.5,806C 505.211,806.175 508.878,806.675 512.5,807.5C 511.675,808.386 510.675,808.719 509.5,808.5C 509.5,809.5 509.5,810.5 509.5,811.5C 507.25,811.181 505.25,811.681 503.5,813C 504.451,816.057 504.784,819.223 504.5,822.5C 503.5,822.5 502.5,822.5 501.5,822.5C 501.174,824.661 500.174,826.494 498.5,828C 498.833,828.333 499.167,828.667 499.5,829C 498.552,829.483 497.552,829.649 496.5,829.5C 496.5,830.5 496.5,831.5 496.5,832.5C 494.25,834.969 491.583,836.969 488.5,838.5C 473.122,846.337 457.122,852.337 440.5,856.5C 433.957,856.999 427.623,857.999 421.5,859.5C 416.5,859.5 411.5,859.5 406.5,859.5C 401.75,857.969 396.75,857.302 391.5,857.5C 382.049,856.304 372.716,854.471 363.5,852C 332.374,840.886 306.874,822.053 287,795.5C 279.311,785.784 273.478,775.117 269.5,763.5C 268.94,761.199 268.44,758.866 268,756.5C 267.617,755.944 267.117,755.611 266.5,755.5C 259.476,728.061 259.976,700.727 268,673.5C 268.383,672.944 268.883,672.611 269.5,672.5C 268.04,675.704 267.54,679.038 268,682.5C 269,679.5 270,676.5 271,673.5C 272.11,671.963 273.61,671.297 275.5,671.5C 276.888,669.097 277.721,666.763 278,664.5C 278.333,665.167 278.667,665.833 279,666.5C 281.135,664.722 283.635,664.055 286.5,664.5C 286.5,661.833 286.5,659.167 286.5,656.5C 289.374,655.937 292.04,654.937 294.5,653.5C 294.5,652.5 294.5,651.5 294.5,650.5C 295.5,650.5 296.5,650.5 297.5,650.5C 297.5,649.5 297.5,648.5 297.5,647.5C 298.5,647.5 299.5,647.5 300.5,647.5C 302.747,642.477 304.08,637.144 304.5,631.5C 305.935,632.824 306.935,634.49 307.5,636.5C 308.282,631.432 309.948,626.766 312.5,622.5C 314.167,622.5 315.833,622.5 317.5,622.5C 317.351,621.448 317.517,620.448 318,619.5C 318.179,621.424 318.346,623.091 318.5,624.5C 319.466,622.604 319.799,620.604 319.5,618.5C 320.675,618.719 321.675,618.386 322.5,617.5C 321.833,617.167 321.167,616.833 320.5,616.5C 322.184,614.649 324.017,612.982 326,611.5C 326.49,610.207 326.657,608.873 326.5,607.5C 329.518,607.665 332.518,607.498 335.5,607C 334.5,606.667 333.5,606.333 332.5,606C 334.444,603.288 336.278,600.455 338,597.5C 341.413,596.423 343.913,594.256 345.5,591C 350.184,590.539 354.851,590.705 359.5,591.5C 360.639,594.004 361.306,596.67 361.5,599.5C 356.881,600.127 354.881,602.794 355.5,607.5 Z"
         id="path1469" />
    </g>
    <g
       id="g1479"
       style="fill:#209bdb;fill-opacity:1">
      <path
         style="opacity:1;fill:#209bdb;fill-opacity:1"
         fill="#797f8a"
         d="M 347.5,788.5 C 349.027,788.427 350.027,789.094 350.5,790.5C 348.973,790.573 347.973,789.906 347.5,788.5 Z"
         id="path1477" />
    </g>
    <g
       id="g1483"
       style="fill:#209bdb;fill-opacity:1">
      <path
         style="opacity:1;fill:#209bdb;fill-opacity:1"
         fill="#6f777d"
         d="M 511.5,782.5 C 508.633,786.909 505.299,790.909 501.5,794.5C 503.901,789.681 507.235,785.681 511.5,782.5 Z"
         id="path1481" />
    </g>
    <g
       id="g1487"
       style="fill:#209bdb;fill-opacity:1">
      <path
         style="opacity:1;fill:#209bdb;fill-opacity:1"
         fill="#abb4ba"
         d="M 350.5,790.5 C 353.742,792.994 357.076,795.328 360.5,797.5C 355.729,797.041 352.396,794.708 350.5,790.5 Z"
         id="path1485" />
    </g>
    <g
       id="g1495"
       style="fill:#209bdb;fill-opacity:1">
      <path
         style="opacity:1;fill:#209bdb;fill-opacity:1"
         fill="#becdd2"
         d="M 470.5,792.5 C 465.641,798.466 459.307,801.799 451.5,802.5C 458.197,799.904 464.53,796.571 470.5,792.5 Z"
         id="path1493" />
    </g>
    <g
       id="g1499"
       style="fill:#209bdb;fill-opacity:1">
      <path
         style="opacity:1;fill:#209bdb;fill-opacity:1"
         fill="#152638"
         d="M 320.5,754.5 C 325.179,754.334 329.845,754.501 334.5,755C 335.167,756 335.833,757 336.5,758C 335.351,759.604 335.351,761.27 336.5,763C 339.674,767.34 343.341,771.174 347.5,774.5C 346.699,776.042 346.366,777.708 346.5,779.5C 347.93,779.421 349.264,779.754 350.5,780.5C 353.388,782.98 355.055,786.147 355.5,790C 360.756,789.44 366.09,789.44 371.5,790C 372.38,791.356 372.714,792.856 372.5,794.5C 375.833,794.5 379.167,794.5 382.5,794.5C 382.286,796.144 382.62,797.644 383.5,799C 390.191,799.169 396.858,799.669 403.5,800.5C 403.833,801.167 404.167,801.833 404.5,802.5C 406.5,802.833 408.5,803.167 410.5,803.5C 413.945,803.445 416.945,802.445 419.5,800.5C 420.167,800.833 420.833,801.167 421.5,801.5C 419.287,803.774 416.621,805.274 413.5,806C 421.907,806.545 430.241,806.045 438.5,804.5C 439.107,804.624 439.44,804.957 439.5,805.5C 438.833,805.5 438.5,805.833 438.5,806.5C 435.447,806.111 432.78,806.777 430.5,808.5C 429.167,808.5 427.833,808.5 426.5,808.5C 413.102,809.987 399.769,809.654 386.5,807.5C 383.183,806.512 379.849,805.512 376.5,804.5C 374.887,802.912 372.887,801.912 370.5,801.5C 366.88,800.863 363.547,799.529 360.5,797.5C 357.076,795.328 353.742,792.994 350.5,790.5C 350.027,789.094 349.027,788.427 347.5,788.5C 346.5,786.833 345.167,785.5 343.5,784.5C 342.089,782.086 340.089,780.419 337.5,779.5C 336.833,778.167 335.833,777.167 334.5,776.5C 332.878,773.545 330.878,770.878 328.5,768.5C 327.607,766.703 326.274,765.37 324.5,764.5C 323.762,760.835 322.429,757.502 320.5,754.5 Z"
         id="path1497" />
    </g>
    <g
       id="g1503"
       style="fill:#209bdb;fill-opacity:1">
      <path
         style="opacity:1;fill:#209bdb;fill-opacity:1"
         fill="#9fa9b2"
         d="M 330.5,801.5 C 332.749,802.08 334.415,803.413 335.5,805.5C 333.019,805.226 331.353,803.893 330.5,801.5 Z"
         id="path1501" />
    </g>
    <g
       id="g1511"
       style="fill:#209bdb;fill-opacity:1">
      <path
         style="opacity:1;fill:#209bdb;fill-opacity:1"
         fill="#777f89"
         d="M 370.5,801.5 C 372.887,801.912 374.887,802.912 376.5,804.5C 373.895,804.379 371.895,803.379 370.5,801.5 Z"
         id="path1509" />
    </g>
    <g
       id="g1515"
       style="fill:#209bdb;fill-opacity:1">
      <path
         style="opacity:1;fill:#209bdb;fill-opacity:1"
         fill="#142531"
         d="M 327.5,799.5 C 328.5,800.167 329.5,800.833 330.5,801.5C 331.353,803.893 333.019,805.226 335.5,805.5C 340.204,809.686 345.37,813.352 351,816.5C 354.151,818.717 357.651,820.051 361.5,820.5C 362.347,821.966 363.68,822.8 365.5,823C 371.435,824.803 377.435,826.303 383.5,827.5C 398.618,830.62 413.951,831.287 429.5,829.5C 432.85,829.665 436.183,829.498 439.5,829C 440.056,828.617 440.389,828.117 440.5,827.5C 446.121,827.046 451.454,825.712 456.5,823.5C 458.117,822.962 459.784,822.629 461.5,822.5C 460.013,823.804 458.346,824.97 456.5,826C 456.833,826.333 457.167,826.667 457.5,827C 456.167,827.333 454.833,827.667 453.5,828C 455.957,829.154 455.957,830.488 453.5,832C 449.058,833.19 444.725,834.524 440.5,836C 440.833,836.333 441.167,836.667 441.5,837C 440.108,839.228 438.108,840.394 435.5,840.5C 435.66,838.801 435.494,837.134 435,835.5C 434.502,838.817 434.335,842.15 434.5,845.5C 430.183,845.535 426.183,846.535 422.5,848.5C 419.788,847.901 417.788,846.901 416.5,845.5C 415.987,842.551 415.987,839.718 416.5,837C 415.167,835 413.833,835 412.5,837C 414.405,837.826 414.739,838.993 413.5,840.5C 412.253,838.956 410.92,837.456 409.5,836C 405.326,835.135 401.326,835.635 397.5,837.5C 395.238,836.326 393.072,834.992 391,833.5C 386.876,834.572 382.71,834.738 378.5,834C 377.107,832.829 376.273,831.329 376,829.5C 369.389,829.007 362.889,826.673 356.5,822.5C 354.117,823.462 353.117,822.462 353.5,819.5C 350.15,819.665 346.817,819.498 343.5,819C 342.185,816.524 340.518,814.357 338.5,812.5C 336.208,814.024 334.208,813.691 332.5,811.5C 331.719,812.737 330.719,813.737 329.5,814.5C 327.345,813.095 325.179,811.762 323,810.5C 322.502,807.518 322.335,804.518 322.5,801.5C 324.722,801.178 326.556,801.845 328,803.5C 328.195,802.181 328.028,800.847 327.5,799.5 Z"
         id="path1513" />
    </g>
    <g
       id="g1519"
       style="fill:#209bdb;fill-opacity:1">
      <path
         style="opacity:1;fill:#209bdb;fill-opacity:1"
         fill="#6f7d87"
         d="M 438.5,806.5 C 436.095,807.768 433.428,808.435 430.5,808.5C 432.78,806.777 435.447,806.111 438.5,806.5 Z"
         id="path1517" />
    </g>
    <g
       id="g1523"
       style="fill:#209bdb;fill-opacity:1">
      <path
         style="opacity:1;fill:#209bdb;fill-opacity:1"
         fill="#acb3b5"
         d="M 386.5,807.5 C 399.769,809.654 413.102,809.987 426.5,808.5C 426.082,809.222 425.416,809.722 424.5,810C 412.135,810.785 399.802,810.451 387.5,809C 386.944,808.617 386.611,808.117 386.5,807.5 Z"
         id="path1521" />
    </g>
    <g
       id="g1539"
       style="fill:#209bdb;fill-opacity:1">
      <path
         style="opacity:1;fill:#209bdb;fill-opacity:1"
         fill="#9ba4a5"
         d="M 469.5,817.5 C 467.605,819.241 465.272,820.241 462.5,820.5C 461.662,820.842 461.328,821.508 461.5,822.5C 459.784,822.629 458.117,822.962 456.5,823.5C 460.033,819.979 464.366,817.979 469.5,817.5 Z"
         id="path1537" />
    </g>
    <g
       id="g1543"
       style="fill:#209bdb;fill-opacity:1">
      <path
         style="opacity:1;fill:#209bdb;fill-opacity:1"
         fill="#bec5c5"
         d="M 361.5,820.5 C 368.54,822.142 375.54,823.975 382.5,826C 383.056,826.383 383.389,826.883 383.5,827.5C 377.435,826.303 371.435,824.803 365.5,823C 363.68,822.8 362.347,821.966 361.5,820.5 Z"
         id="path1541" />
    </g>
    <g
       id="g1547"
       style="fill:#209bdb;fill-opacity:1">
      <path
         style="opacity:1;fill:#209bdb;fill-opacity:1"
         fill="#707b7f"
         d="M 440.5,827.5 C 440.389,828.117 440.056,828.617 439.5,829C 436.183,829.498 432.85,829.665 429.5,829.5C 432.974,828.475 436.64,827.808 440.5,827.5 Z"
         id="path1545" />
    </g>
    <g
       id="g1575"
       style="fill:#209bdb;fill-opacity:1">
      <path
         style="opacity:1;fill:#209bdb;fill-opacity:1"
         fill="#485c6a"
         d="M 391.5,857.5 C 396.75,857.302 401.75,857.969 406.5,859.5C 401.234,859.811 396.234,859.145 391.5,857.5 Z"
         id="path1573" />
    </g>
    <g
       id="g1579"
       style="fill:#209bdb;fill-opacity:1">
      <path
         style="opacity:1;fill:#209bdb;fill-opacity:1"
         fill="#647689"
         d="M 440.5,856.5 C 437.647,857.954 434.647,858.954 431.5,859.5C 428.167,859.5 424.833,859.5 421.5,859.5C 427.623,857.999 433.957,856.999 440.5,856.5 Z"
         id="path1577" />
    </g>
    <g
       id="g1679"
       style="fill:#209bdb;fill-opacity:1">
      <path
         style="opacity:1;fill:#209bdb;fill-opacity:1"
         fill="#152837"
         d="M 437.5,954.5 C 435.755,956.033 434.755,958.033 434.5,960.5C 432.457,961.579 431.124,963.246 430.5,965.5C 420.168,972.466 408.835,974.299 396.5,971C 393.094,968.33 389.594,965.83 386,963.5C 385.39,960.978 384.057,958.978 382,957.5C 381.814,954.964 381.314,952.631 380.5,950.5C 380.018,941.388 381.685,932.722 385.5,924.5C 387.297,922.566 388.297,920.233 388.5,917.5C 392.598,910.902 397.264,904.736 402.5,899C 406.5,897 410.5,897 414.5,899C 416.963,902.465 419.796,905.631 423,908.5C 427.667,917.167 432.333,925.833 437,934.5C 438.77,941.136 438.937,947.802 437.5,954.5 Z"
         id="path1677" />
    </g>
    <g
       id="g1703"
       style="fill:#209bdb;fill-opacity:1">
      <path
         style="opacity:1;fill:#209bdb;fill-opacity:1"
         fill="#616f78"
         d="M 385.5,924.5 C 381.685,932.722 380.018,941.388 380.5,950.5C 379.349,945.35 379.183,940.016 380,934.5C 381.381,930.796 383.214,927.463 385.5,924.5 Z"
         id="path1701" />
    </g>
    <g
       id="g1711"
       style="fill:#209bdb;fill-opacity:1">
      <path
         style="opacity:1;fill:#209bdb;fill-opacity:1"
         fill="#677580"
         d="M 437.5,954.5 C 437.245,956.967 436.245,958.967 434.5,960.5C 434.755,958.033 435.755,956.033 437.5,954.5 Z"
         id="path1709" />
    </g>
  </g>
</svg>
